<mxfile host="65bd71144e">
    <diagram id="8wL7cECltQWjseuG5kjt" name="Page-1">
        <mxGraphModel dx="1993" dy="873" grid="1" gridSize="10" guides="1" tooltips="1" connect="1" arrows="1" fold="1" page="1" pageScale="1" pageWidth="850" pageHeight="1100" math="0" shadow="0">
            <root>
                <mxCell id="0"/>
                <mxCell id="1" parent="0"/>
                <mxCell id="2" value="" style="shape=image;verticalLabelPosition=bottom;labelBackgroundColor=default;verticalAlign=top;aspect=fixed;imageAspect=0;image=data:image/png,iVBORw0KGgoAAAANSUhEUgAABG4AAALKCAYAAABjkBeoAAAAAXNSR0IArs4c6QAAAARnQU1BAACxjwv8YQUAAAAJcEhZcwAAEnQAABJ0Ad5mH3gAAN83SURBVHhe7N0HYFRV9sfxkwKEACEQCL13kKoIqCDYFbvYy6JrXXtdy66E3bX/19517b2jooiFgCi9995CQoAUAiGFlP87d96DSZhkZpJJm/l+/v+7782dyWRKgsyPc88NK7YIAAAAAAAAap1w+wgAAAAAAIBahuAGAAAAAACgliK4AQAAAAAAqKUIbgAAAAAAAGopghsAAAAAAIBaiuAGAAAAAACgliK4AQAAAAAAqKUIbgAAAAAAAGopghsAAAAAAIBaiuAGAAAAAACgliK4AQAAAAAAqKUIbgAAAAAAAGopghsAAAAAAIBaiuAGAAAAAACgliK4AQAAAAAAqKUIbgAAAAAAAGopghsAAAAAAIBaiuAGAAAAAACgliK4AQAAAAAAqKUIbgAAAAAAAGopghsAAAAAAIBaiuAGAAAAAACgliK4AQAAAAAAqKUIbgAAAAAAAGopghsAAAAAAIBaiuAGAAAAAACgliK4AQAAAAAAqKUIbgAAAAAAAGopghsAAAAAAIBaiuAGAAAAAACgliK4AQAAAAAAqKUIbgAAAAAAAGopghsAAAAAAIBaiuAGAAAAAACglgorttjnAAAAAADLxx9/LCkpKfalQxo3biydO3eWU045xZ6pPd577z3ZvXu3fUnkrrvuss+qx++//y4jR460LwEIFIIbAAAAAHCjoc2XX34p27dvl/j4eHvWpWHDhtKxY0c56aSTaiy8eeuttyQ6OlouueQSe0bkiSeekCVLlsjevXtFP+Lp8eSTT5Z//OMf9i2q1ieffCKJiYny6quv2jOB8/jjj0tOTo4cc8wxcuqpp9qzIr/99pts3LjRBGn6fgDBiqVSAAAAAOAmLy9P+vXrJ7fddpupYnEfr7/+ugkKnnzySfnuu+/sr6g+M2bMMIFSixYt7BmRe++911QHXX755fLBBx/Ihx9+KJMmTZIpU6bIww8/bN+q6nz77bfy2WefyfTp0+2ZwNHn++mnn5pQKj8/3551Oe6446RJkyYybdo0ewYITgQ3AAAAAFBKZGSkqWpp2rRpiRETEyPXXHONHHXUUTJr1iz5448/7K+oHu+++66p+Dn++OPtGZH169ebahStAHIeZ2xsrJxzzjmSnZ0tX3zxhX3LwNNKHx2//vqrHDhwwJ4NnHfeeccEVYWFhfbMIfXr15dzzz1XGjVqJN9//709CwQfghsAAAAA8ENUVJSccMIJkpycLMuXL7dnq54uRdq5c6e0a9dO6tWrZ8+6wg0NadznVLdu3czSLl02VRV0yda2bdtkxIgR5vu3adPGviYw3n//fVNRc+KJJ0rXrl3t2ZIaNGggbdu2lZ9++smeAYIPwQ0AAAAA+Gn06NESHh5ughRvJk+ebHq/PPPMMx7HG2+8Yd+yfBs2bJBWrVrJqFGj7BkXrbDRAKM0rbYJCwvzeF0gNG/e3LwOCQkJpgJJQ5ZA+eGHH2TevHkybNgwGThwoMTFxdnXHK59+/ayadMmE2wBwYjgBgAAAAD8pMt0NLgoKiqyZ8q2YsUKs6RKgwVPQ5dcaS8XbzS46dGjh/nevli0aJHpC1O6wXKgnH766XLWWWeZnbY0HNKQKFD0NdPX9oILLjDBVHn3rUGWfn9Pu4ABwYDgBgAAAAAqQKtAdCmSN7fccou89NJLpj+Np/Hss8/K8OHD7Vt7plU7mzdvNsuCfKGB0J9//mmqgkpX6ASKhiVVUc2jzYhzc3PltNNOM/fvLajS61u3bi2ZmZn2DBBcCG4AAAAAoAI0FPGlykSbHGtTY20Y7Gnodd7CidTUVMnKyjIBhS90CdYRRxwhDz30kM8VOrWBVibpFt9aJeRst+7La9yyZUvJyMiwLwHBheAGAAAAACpAg4KcnBz7UtUqKCgwS4fcd5Py5JdffpF77rnH9MIZN26cWcZUl+iSMX3MV111lV+BkzZm9rTzFBAMwoot9jkAAAAAhDzdpUl3SxowYIDZLaksugRKt+a+77777BnPdKtqvb+yQh5t6nvdddfZlzx7/fXX5ZtvvjFNe8uiOytp8KFLhs444ww5+eSTK1Vt8+WXX8qWLVvsS2L662hPG09ee+01+fbbb82Srso488wzTYVS//79zTbfSpsU79mzx+wspVU4Z599tpl398gjj5hg65///Kc9AwQPKm4AAAAAoAI0KNDKFm9WrVp1sAGxpzF79mxzLI9WlERGRspvv/1mz5Q0bdo0c50up9LAprKhjVq2bFmJx6kNg6uaLnnS3bDmz59/8PuuXr3a9PfRY1nbr+fl5R22HToQLKi4AQAAAAA3vlTcPPXUU7Jjxw7TQFdDkvJoEHHgwAEp66OX9srRJsflBS2TJk2Szz77TE499VSzjKi0a665RqKioszj0dsEomnwvn37zON2aDBS1tKrQFXcaGVN6Z26PvjgA7NjlL4fWpHj6THcdNNNZtvwG2+80Z4BggcVNwAAAADgBw0SpkyZIkceeaTXnjNKl/xoE+JmzZp5HLrdtbfqGA1kOnfuLMnJyfbMITfffLNpcKzLmAIV2igNSNwfZ3X0y9HXwv176tDXT4MtPZb1GDTY0a8FghHBDQAAAACUsnTpUnn++efl6quvLjG0okOv0wqX888/v9LLkXylYUz37t1lzZo19ozLJ598Ij/++KNpSqxbjuvjc3+8uquU9thxp9U7ugSpOum259OnT7cvBZYuE8vPz/dp2RpQF0UkWOxzAAAAAAh5vXr1krS0NFPdoZUs2jzYGdqDRbfZPu+888zSpOqUnp5uQoo2bdqY6hvVrVs32blzpwl1dKvw0o+3RYsWcvHFF5v+OI65c+eaXar69Oljz1Re3759TXiiVUiezJw501TN6GvrL/0aXT51wgknlHgejsTERHO9hmkRERH2LBA86HEDAAAAAKXs37/f4/bS2o9Gw4HqDm2UBiN33XWXCUe0msaxd+9e++xw+nid3ZkcuvuUznvrzeMv3TVLwxlPtOrnpJNOqvDrps+9rOom3VFKd6HytNsUEAxYKgUAAAAApeiW1O6VK87QEKQmQhulwcWjjz4qSUlJJXaX8vQ4nVE6tFEasISFhdmXAqes0Ebt3r27Uq9bWaHNV199Jbm5uaa3DxCsCG4AAAAAhJT//ve/ZowbN67E0LnaTpdCxcfHy6ZNm+wZ/+iSJd0dauTIkfZM9aiKhR7fffed2f3rvvvuC1hDZqA2YqkUAAAAgJDw9NNPm3DGWVqUl5dnjg798K9VKnfffbdZklRb6TIupVVB/tLnrB8Bq7tqSB9zRR5vebRySHvbeKoqAoIJwQ0AAACAoPbnn3+a0Gbq1Knl9oNxaHhzyimnmPDmmGOOsWcBoGYQ3AAAAAAIWhraaNNaDWy0wa2vtKeK9k359ttv7RkAqBn0uAEAAAAQlGbNmiXnnHOO2drbn9BG6e21QkcrdQCgJlFxAwAAACAoaaWNNrCtDF02pdtnjxgxwp4BgOpFxQ0AAACAoOP0tKksXWI1ffp0+xIAVD+CGwAAAABBR0Ob0rtGVVSg7gcAKoLgBgAAAEDQSUxMtM8qT3vlAEBNIbgBAAAAEFQ0aAlklQwVNwBqEsENAAAAgKDwzDPPmHHuuefaMwBQ97GrFAAAAIA6S6trZs+ebQKbPXv2mLmsrCxzDJRJkyaZHaoAoCYQ3AAAAACoU9zDGl3GlJubG/Cwxp3ef4MGDexLAFC9CG4AAAAA1AnOUqjqCGscd955p9laHABqCsENAAAAgFrr2WefPVhho0uhnOVQ1WH48OEyZcoUadq0qT0DANWP4AYAAABArVI6rNHqmors7KTBi95HRaWmpkp8fLx9CQBqBsENAAAAgBqnYY1ymgxXNKzRpU3qjjvukKioKGnVqpW57A8NfPR+LrroInsGAGoOwQ0AAACAGuGENXrMzMw05xVZCqVBiw4Na2JjY82cs7xpy5Ytcskll/hceaP3cf/995uv1+AHAGoawQ0AAACAalMVYY0GLDrK6kWjS54SExPN9/QU4Dj3peO0006jpw2AWoXgBgAAAECVClRYozSo8SWsKU2XXjlLsJQT4GhY49yXbvmtRwCoTQhuAAAAAAScBiNz5swpEdY4R39pUDNs2DATsuhSKGc5VGU4AQ5BDYDajuAGAAAAQEC4hzUajOgIVFjjVMUAQKghuAEAAABQKc8991zAwhp1++23E9YAgI3gBgAAAIDfNKzRChsdGtQEKqxRgVgKBQDBguAGAAAAgE80rNGlUBrWZGRkHKyw8ZeGNM6xWbNm5pywBgA8I7gBAAAAUCYNa5wjYQ0AVD+CGwAAAAAllA5rVEWWQmljYW0wTFgDABVHcAMAAABAnn/+eXN0D2ucoz+cnaBuu+02adiwoWku7IQ2AAD/EdwAAAAAISpQYY3SqhrCGgAIPIIbAAAAIIQEOqzRChsdGtQQ1gBA4BHcAAAAAEFOd4LSoaFNenq6matoWKNVNU5Y07x5c1Ndo1U2AICqQXADAAAABCH3sCYnJ8eMyoQ1zpGwBgCqF8ENAAAAEEQ0qKmKsEaxFAoAqh/BDQAAQDX7/XeRkSPtC0AAaFDjVNjoUijCGgAIHgQ3AAAA1ei110SSk0UmTrQnKmjOnEwZNizWvoRQ9MILL5QIa5wKG385Yc2tt956MKxxjgCAmkdwAwAAUE2+/lpk0iSRRo1EXnrJnqyg9u1/kaSkk+xLCBUa1iinyTBhDQAEP4IbAACAavLEEyIrV4p06CDyn//YkxWg1TbDh/8hxcVj7RkEs9JhjXKO/nB2giKsAYC6heAGAACgGlifuSUqSiQpSSQ8XCQhwb6iAp58crP8/e8rrPs8wvoQ3smeRTBxwho9pqWlmfOKhjVHH320CWt0F6jo6GjCGgCoYwhuAAAAqtjs2SKJiSJ/+5vIBx+I7NxZueDmjDPmyY8/7rTuo6dMmNDDnkVdF6iwRmlQQ1gDAMGB4AYAAKCKvfWWSOvWGriIvPuuyKZNFQ9u5szJkTFjpktOTqGcfnor+eGHo+xrUBdpY+G5c+cGLKzR6hqtsomLiyOsAYAgQXADAABQhX7+WWTqVNcuUtHRIv/9r8j27SJPP23fwE+JiekyZswsc96wYT3Zv/8Uc466Q8OaefPmmbBm//79prmwE9r4ywlrdGhY41TYAACCB8ENAABAFXr4YZFXXxVp08Z1efdukQYNRE44QeTNN11z/hg3boF8+eUO+1K4FBefbp+jtnvxxRcDFtaoW265hbAGAEIAwQ0AAEAV2rVLJDPT+ktXmMiMGSLz54tkZIicc47IJZfYN/JDdPQP1od+569v4fLCC/2sD/Ad7cuobTSscZZDaVATqLBGOUcAQHAjuAEAAKgm2dkiH38ssnmzyAMPiDRqZF/hI2cb8EPCJCGhl0yY0M2+jNqgdFjjVNj4i7AGAKAIbgAAAKpRVpbI5Mkil15qT/hh3Lil8uWX2+xLKkzOOKO1dX9D7MuoKRrWOMfdu3eboEYDG39pSOMcW7RoYc4JawAgtBHcAAAAVLN9+0QaN7Yv+GHMmDmSmLjbvqTCJDq6vmRnn2RfRnUqHdaoiiyFcpoLE9YAADwhuAEAAKgD5s7dL2PGzJD9+wvtGRVmjQiZM+dU64O/awZVqyrCGm0srIOwBgDgCcENAABAHeC+DXhJkfLkk33l3ns72JcRaC+99JI5uoc1ztFfGtTcfPPNB8Map8IGAICyENwAAADUARdeuFC++CLFvuQuUhISesiECV3tywiEQIc1Q4cONRU2GtQQ1gAA/EFwAwAAUAc0avSD7N/v6a9tEXaD4kH2ZVSU7gI1b968KglrnAobAAD8RXADAABQy82dmynDhrlvA+4uQlwNik+wL8MfTlijFTa6C1R2dnaFwxpdAuUcW7ZsSVgDAAgIghsAAIBa7sILl8gXXyTZl0qLMGPOnGFy9NExril4pUFNVYQ1iqVQAIBAIrgBAACo5Q7fBtydK7h58slecu+9HV1T8EiDGq2u0SqbXbt2EdYAAOoEghsAAIBazPM24O5cwU1CQneZMKGLawoHlQ5rtMJGh78IawAANYXgBgAAoBYrextwR7g1IuWMM+Jl8uSBrqkQ9/LLL5ujhjYa1uhSqMqENX/7298OhjXOEQCA6kJwAwAAUItddNFC+fxzT9uAOzS4cRoUj3ZNhaDSYY1yjv5wdoIirAEA1BYENwAAALVY2duAO1zBjY45c46Wo49uYmZDQVWENY0aNTI7QRHWAABqC4IbAACAWmrevEw5+uiZ1lmYa8KjQ8HNU0/1lHvu6WBmg5UT1uhx586d5rwiYY3SoMYJa3QQ1gAAaiOCGwAAgFrqoouWyOefl7UNuONQcJOQ0E0mTOhsZoOJNhfWEaiwRitsdMTHxxPWAABqPYIbAACAWqpx4x8lO7vIvlSWQ8HN2LHx8v33/c1sXece1mhzYR2BCmt0KZRW2AAAUBcQ3AAAAurzzz+XgoIC+1JJnTp1kmOOOca+dMi0adNkx44d9qVD6tWrJx06dJBhw4bZM8Hviy++kAMHDpjzmJgY64P4WHNelilTpkhGRoZ5reLi4mTMmDH2NZXzyy+/SFpamhQVFUnbtm3l+OOPt6/x3TfffCM5OTnSsGFDadOmTZnv459//impqamSm5srUVFRct5559nXVN7HH39sn4l06dJFhg8fbl+qGj/++KNkZmYG5P2YNy9bjj460b5UHl1GpcFNpDRqVF/27RtpZsvy229ivd72hVKshyynnGJfqCGvvPJKibDGqbDxl4Y16qabbjJhjbMcCgCAuobgBgAQMP/9739NcKMfjurXr2/PuuTn50v//v3ljDPOsD4YHvpk+NNPP8mnn34qa9askSZNmkhYmKuXh/7nSe+jZ8+ecsEFF8iIESPMfHV6/fXXpXPnziUer6/0tWjVqpVcccUV9ox3b731lnz44YcSEREh4eHhEhsba4KGO+64w75FSa+++qr88ccfpgpBgwL9fhdddFGFHq+7b7/9Vr7//ntJSkoyIVy3bt3k1FNPlXPPPde+hXePPvqoLFiwwHzw1p8HvY8nn3zSvvaQ2bNnm7Bq/fr1JuTR4GbkyJFyzz332LeouGeffdaER3qfGoYNGjTI/PydeOKJ9i388+uvv8pvv/1mAqizzz7bnj1E34+ZM2fK7t27zc+uhgWXXHKJnHTSSfYtXPTnqkePHl5Dnf/7vy1y773L7UvlcYIb15g7VytLGusVHt13n8iyZfYFS1GRSEaGWK+/yMCBIh98YF9RjTSscSpsNKgJVFijnCMAAHUVwQ0AIGAmTpwoWVlZ5sOTE8A49D83//vf/0wVh36YdT60fvbZZ+bDmn6QLf0BV+/jueeeMx+CzzzzTBk1apR9TdXTx6qhhT7Wpk2b2rO+efPNN+WFF14wAcHTTz9tz5ZPKwz06+666y4TUulz1/BGA6AWLVrIhAkT7Fu6PPbYY5KSkmKCHaeK5APrE7eGLWeddZYZFaH3sXjxYhNyaHWUvm8arOgHaX0PfKkg+de//mUqaO69915TsaPPQ0MN/dnQ5+nu6quvlt69e5vAybnt/fffb3b4ufvuu+1b+U9/bjQM1NdT71OfxxtvvGEeg36v0aP93zZbH8/kyZPN4xs/frw96/LII4+Y56zvnQY7+v69++67sn37dhN4uVdO6fusj+e6666zZzw788z51vcrozSmBFdwM3RoM2s0lQsvbGU9v1jXVR4kJ4vk5toXLPo3QQ1r1q4V6ddP5MEH7SuqWOmwxqmw8RdhDQAg2EUkWOxzAAAq5ffffzfVDfpBtVmzZiVG8+bN5YgjjpCVK1eapSROBc2KFSskPT1devXqZQKI0l+nH+RWrVpllp3o11eHuXPnyldffWWCC3+/54PWp14NPzZs2HCwwsgXusRGm6TefPPN0rp1a/PcteJGX5sffvjBhDfdu3c3t9WlRd99950JujSgcW7ft29fSUxMlAYNGpjgoyI0SNOg49prrzX3q+9bnz59TAiyevVqOeGEE+xbejZp0iTzQVyDJl3m5jwPfS30ddHnqNU3Sit79Gfm9NNPN2GHfi+9/f79+2X58uWmisi5rT90mZeGT7rES18fvU+9b71f/dnbs2eP30umNMjTnwkNHjW8Gjx4sH2NmKonfS5a6aTfTyuf9Hv269fPVOjoUjHtreLQJVsLFy6UrVu3mtuUJTJSrNcmXtq1a2ACGWfMn7/HXD90aKz8+9895ZxzWsl//tNTLrustfUYmkvnzlFSv772vfGsSROxHt+hsW6dWK+XWF8ncv31ItHR9g2rgIY18+fPl7/+9a8mBNP3ScMt/T13lgj6QkMafU21Sk1DMQ3i9HVlORQAIBiV/V91AAACTD/Q6oeqLVu22DPe6RId5c+HuspaunSpaV6qS3b8oRUdycnJph+MBg7+fIC88cYbTejTuHHJJS66JEcrUXT5jUPDLw0GtAJGl5c5NBR5+OGHTZVQRfz888+mEqRjx44l7ldDs3bt2pkP2N5s3LjR9LPR0MSds2zMPVDS1/fyyy8/rIpHv58um6poI1r9QK+VNhoOuNPQKTIy0gQ3/pg6daqpZNJlcxrkabDlTsNHDYY0QHB///T90H8fu/jii+0ZF33vNMzR16o8Y8e2sr62rXUfPUsMx+jRzc31Ovr3byxduzaU+Pj61s+dLpny3ZtvikRYX3Ltta4eN4GmYY2OAQMGmNdDx7Jlyw5W2fhK31cNbPT307kfDQS1uoYKGwBAMCO4AQBUK+11U1bzYk+0gkQrP3z5YKYfsD/55JMyh1ZF+EL7rWiVSekQxRutdNF/+X/ooYdMdYx+OPeVPj8NN0rTBsVKq08cToig4cr06dPNc9PlTPpaaWCi1TkVoYGaPub27dvbM4foa5GXl2e+X1n0++/bt8+EPEorhfSxaRWOVjFpsOG+7EwDDK1QKf06a2WPPt+KVk7o99CfGQ2A3GkljlYwaQWQP7TCSR+jVmDp+1o6uNGwTqs9yno/Sj8Ope+3/h58/fXX9szhNIDRER/f4ODYsiXHvvbQ9f4GNe7eflu31RbRwrIK/th4VF5Y40//GvewRl9XwhoAQCgiuAEAVBtt7qo9RvRDtTtdwrJ582b70iG625R+6NclN8cee6w9WzZdPqR9Rcoa2jjZG6062bZtm1x22WX2jO/OOeccOf/8800AoyFO6T4/FaHNdQsLC0uEG/rBV0MUXbqjy02c56eNjfXxV5RWomhg4qn/i4YV+jj0tSmLVuRoMLJ3717zXmh4oY/rvffeM+eegrDSc7pkTEMeDX+8Lcvyx4wZM8ySJg0O/WkYrbtS6fIq/RnU0KZ00219rO7vhzZ1dp6zvh8aFnmiVUYaki1ZssSe8U12dqF9VnlTp4poDqftdyrYEqmEQIU1ylNY07VrV8IaAEBIIrgBAASULuspi37I1Qau2ozW3bp168yOQ0ceeWSJcf3115sPw1ph4ulDf2n33XefaQpc1vj3v/9t37Js+lj0g7ouffGXVno4FTKBohUcWl3jNGbWy/oYdWciXTJ1++23m+emOyhppYyGUxoeVIS+dxo2lfdaa3hTFt2WfM6cOSaw0ABH+9zoY3vqqafM/d5yyy32LQ+nu4vpcjFtaKzhnp4H6rW88847zdB+Kvqz56kCpiz6WmoQoUv2PG2Jrj/Pa9eulddee81UCukOYPqcn3nmGVNtoz2DNFwrTatztB+Up23wfXXUUf5VDrmbNs0V3Gjx0UUX6c+ufYWftOm0joEDB5rm5DoqE9ZoLyENs/Rnh7AGAAAXghsAQMDoMhmtENHmxBdeeGGJoXP6Qe4///nPwb41Dq1m0CqId955p8TQ0EaX12hAoRUb3jhVEWUNDUC80WqRQIcvFaVhjDawde9lo6GGVsVoBZLuSqSVKfrctKeO7q6jlTHac6UmaKijy7Q0ZNLePJ06dTKPTT98a3CiS7HKqnrS5sR///vfzdbwWo3y4osv+ry0zRsNU95//33zOmrfnJdeesm+pnwaQGlooFVUGsq59/1x6HPW6qrjjjvO9NRxfz+coKqs90MrbrRSp6Iqs0Rq/nzXNuDWS+53aKPNp52wxqms0eoYDbF0+KN0WKM7fmlQ5mnZIAAAoYrgBgAQMNr4VasMtD+MNqF1H9ofRKsptPFt6WBEe44cddRR5l/YS4/HH3/cfDDWXY2qg/YdKb0cpiZocKG9dnRL8ZNPPtmeddEP/Pp6lf5wq81wdWi4M3PmTHu2emlwo9VS2r/GnbPzlT4nT/RnQPvE6C5LuqOVPgfdWSoQNEDSHbeuuuoq8/gWLFggs2fPtq/1TJf1aYWOhkneeuLo+6G9WMp6P3QJmvbJKU1/X7QZdHV76ikRXfFmPWRp08ae9MI9rNHm15UNa3R4Cmt8qawDACDUENwAAAJGA5ZBgwYd3NHHfeiH8dI7DTm0SqSssES/RqsYfGloHKjmxGX1ptFqEee+PC1/CRRdauM0SL700ktLfJjV10kvl7XcR6/T18p9Fypf6dIdXS5VVqih71N5DYP1/ddQrqygQ6/Tfkbe6HPTShetftI+R4GiwZH+LOlj2LRpkz3r2axZs2TRokVmqdRHH31kqm90yZcGiPr6aO8lpa9Jee+HVulU9P2oCjNmaB8h3TlNrNdArJ/lkmPKFPuGNg1r9Hdafw6dsEZ3w/I3rNGlbzo0DNOwRgdhDQAAviG4AQAEjAYe+uFfqwy0R0zpUVH6wU5DAW/0Q7YuiSlrfPnll/Yty6YfxD2FRNo0Vz/AO/eluwH5cn/+0t4oGhg4oU3pypVjjjnGfNgta4mNLt3R9yFC93f2k36v3Nxcj9u162ui91m6+sedVrPokiK9D0/0PvT19YVWoujwZ7toX+hrU16fHoeGOzp0id4HH3xghi7d02V72uRYQ0KtatKfTX0/ynrO5b0f5fWDKsuCBZn2WcXoDlL6q6g/PomJYv0slxzaHmnePN0a/FoT2GhYo5UxGzZsqFRY4yyp0oodfb10AAAA3xDcAABqPV1qostKvNGlWM8991yZQxuneqPLXrQ5cWnDhw+X//u//zt4X//85z897r5UGRraaPikTXB1+YinsEsrOHRJkTbE9USbAutr5amRrjcauGmfIk/VKGlpaSY8c9/OuzQNdbSqpqzlUNpfxn2ZnO5ApD2PPHGeh9OU2R+6q5O+lrrcqTR9b3NycuT000+3Zzy79dZbzc5QumTt+eefN0P7Lmn/He3HpEuotGJElwHqUqyylvLp66Y9iUaOHGnPHKJhj78B2759ldtV6sQTRZ5+2hXSvPyyWD/LrtGnz6uSnX2tfPSRVtcMMr2GNLAhrAEAoOYR3AAAajWtbNEtnHXHJG8C0Zy4TZs2pmqoNK1G0Yazzn3ph3V/difyRsMG3ZHp8ssvN42cS1fauNNQJyUl5bCKnzfffNPM63Kg0n2EfKHVPPqctIm07gDm0GVBWnGhIUV5NNTRpW0a/Pz222/2rIuGXRpU9OzZ057Ryo/m8vvvv5udl9zp89KlRRV9HhrK6JIerZBxpztyaaikzZK99a3RnwP3n50ePXpIr169zNdpAOH0atKKm4svvliSk5PNz6o73flLd40q63no66FVShV11FH+bwWlT9t66NZz0j4+r5lx4YWD5cMPJ8qCBZ9KRoZW1ywxAZ6vnLBGK8WcZVCENQAABE5YcU10xQMABCVnu22tRvGVfmjXZUhaBaEfjt2X0ugSE10SpMuGzjnnnHKrPQJFq3sefvhhUyExbtw4e9Z/l112mfmgrx9iPdFw4oILLjDnuhX222+/LQsXLjS7E2n4UboSQytPtFGxQ5dtaTWEhlrOh2ytJtHvqUus3EMlfX01ONCdqLzR0Eb7uehR++kcOHDALFfSoOrqq68+LFDScER3XXLoY9A5DV70sen7p++pLjvS91F3GHPfIUu30dZwIzo62tzOec81GNGAqvTz0J8BDZi80Z2KNHzSEE6/Rpcl6dCgRJvrlu63VPp5lEX7Nw0ePFiuvPJKe8bFec08vR/6s1C6emrGjBlmqZU+Ht323lcTJ66VhIR15ry4eKw5+kNfb6W9a5ytyCuyJbk2x9Zxww03mMbTyjkCAIDAouIGABAwuiOQDn+ccsop5gO9Bgu6PEaXljhDP9hrdYRuLV0doY3S76NLkbT6pTI0XDjiiCPsS4fTxrsO3QpbQ6sRI0aYsCQjI6PE66CjdFPfs846y3yNBgX6umm4ortwaUhQuhJIq0GSkpLsS+XTpsAaSmhliX5fDR80RNEdmTxVAbk/D6VfpwGIBiMaYOhj08BEd13SoMp9S219z6+55hpTyaTBnX4/vT+9rOFK6eexfft2n5+Hfi9dyqYhkN6vvqb63PR5lA5tlK8VJhra6Lbipen7oZU5+v30Oev7pUuptILK05I3ZzlaZcJBX2lYo0Mfu7N8SZcyaWDjT2ijQY1TWfPxxx+bUFL74GhgQ2gDAEDVoeIGABAwGrQoT8tCyqPVGfqBtzStvtCeM+UtG6oK+njuvvtu8yFVw5SKcHq0lPVa6PXuH+i1esZTU2SHBh6l70tDDg0I9OvKe600uNBqFn9eR+1Ho6GQ0t42ZS3p0UDE0/06vWQ0tNHXQR9bea+Fvv9620A+D/15dA+WKvI8StOKrLJCRF/fD6W9c/R10Z8xf5x11jz5/vud5ry8iptAVdYofYxaWaPLwnQQ0gAAUL0IbgAA8ECXfenyIK3QqOt0ByT9wO3LEqPaTJ+HBlgVDdNqC92WXiuHtDdO6aoib8aMmS2JiWnmvHRwM3/+fFmwYIEJbbTXkapoWKNBzZFHHmmqbLTfD2ENAAA1h6VSAAB4oB9c9cOvhgV1nT6P8pZt1RX6PPxdilcb6ZbiGoT4G9q4cxoTa1ijQc2QIUPMMjldBqVLmfxdBqX0Z14bKmuvJb0f7ZWky6sIbQAAqFlU3AAAUAb94KvLa3xdmlNb6RKjyoQEtUWwPA/9udJlVBXp2+RU3DRuvEl69HjL9ObRJVqVqaxxjlpZ4yyHAgAAtQfBDQAAQB2g1TB33/2t7NvXxbqUY43/mXl/OWGN7malYY1yjgAAoPYhuAEAAKilNKxxetfoUrGUlExrtqHrSkm3j94R1gAAUHcR3AAAANQiGtYop8mwLoXydbtyd4Q1AAAEB4IbAACAGuaENXpMTk425xra+Et3gtKhYU3btm3NHGENAAB1G8ENAABADaiKsEa3S9dBWAMAQPAguAEAAKgmgQprRLrL9defQFgDAEAIILgBAACoQoELa9RpZlx/fS9JSBhIWAMAQAgguAEAAAgw3QVq4cKFJcIa5+gvraoZMmSIWQ41dOgqa6a5JCT0kAkTerpuAAAAghrBDQAAQAC4hzW6E5SOyoQ16rrrrjNNhnUp1Nq1RXLUUTPNPMENAAChg+AGAACgEt54440qCWuUc1SJiWkyZsxsc/7tt0fJWWe1MucAACC4EdwAAAD4ScMara7RKpvt27dXOKzRkMY5tmvXzpy7hzXu3IObadOGy+jRceYcAAAEN4IbAAAAH5QOa5wKG3/5E9a4I7gBACA0EdwAAACUQcMa51gTYY07ghsAAEITwQ0AAICbN9980xydsEY5R384O0Fde+21B8Ma51gRBDcAAIQmghsAABDyqiKsiYmJMbtBVSascff00xvl7rt1O3CCGwAAQgnBDQAACEmBCmuULoGqirDG3cSJayUhYZ0537PnVOt7RZpzAAAQ3AhuAABAyNDGwosWLQpYWKMVNjo0qKmKsMade3BTXDzWHAEAQPAjuAEAAEFNd4LSoRU2WVlZZlQ0rNGqGiesad++vamu0Sqb6kBwAwBAaCK4AQAAQUmDmkCFNc6xusMadwQ3AACEJoIbAAAQNDSocSpskpKSAhbWqKpeCuXNOefMl2+/TTXnBDcAAIQOghsAAFCn/e9//ysR1jgVNv5ywpq//vWvB8Ma51gb6FbguiW4IrgBACB0ENwAAIA6R8MapRU2wRzWuHOCmyFDmsqCBcfZswAAINgR3AAAgDqhdFijnKM/nObCdSGscecEN6NHx8m0acPtWQAAEOwIbgAAQK3lhDV63LZtmzmvaFgzePBgE9ZoY+GmTZvWibDGHcENAAChieAGAADUKoEKa5QGNXU5rHFHcAMAQGgiuAEAADUu0GGNVtdolU2HDh3qdFjjrmnTnyQrq4DgBgCAEENwAwAAaoTuArVo0aIqCWu0wkZHMAkLm2yOBDcAAIQWghsAAFBtNKxZvHixCWv27NljdoJyQht/aVijrrnmmoNhjS6HClZOcHPnnV3k6af7mnMAABD8CG4AAECVe+utt6okrFHOMdg5wU1CQg+ZMKGnOQcAAMGP4AYAAFQJDWuc5VAa1BDWVA7BDQAAoYngBgAABIyGNRrU6Ni6dauprtEqG39pSOMcO3bsaM5DMaxxLFq0R4YMmWnOCW4AAAgtBDcAAKBSNKxxjoQ1VUO3AdftwBXBDQAAoYXgBgAA+K10WKMqshRKd4LSQVhTPvfg5ptvjpJzzmllzgEAQPAjuAEAAD55++23zdE9rHGO/nDCmquvvtrsAqXDCW3gmXtwo1uB65bgAAAgNBDcAACAMgUqrFFaVUNYUzEENwAAhC6CGwAAUII2Fl68eHHAwppBgwaZChsNaghrKobgBgCA0EVwAwAADoY1WmGjjYUzMzMrHNZoVY0T1nTq1OlghQ0qjuAGAIDQRXADAECICnRY4xwJawLv2Wc3yZ13rjTnBDcAAIQWghsAAEKMBjUa2CQmJgY0rFEshaoaEyeulYSEdeY8M/MUadq0njkHAADBj+AGAIBaSitilC45qiwnrNH73LJli6mw0eEvwpqa4R7cFBePNUcAABAaCG4AAKhF3nnnnYNLmLQaRsXGxpqj9o0ZP368z0GO3pfS0EbDGr2/yoQ1+r2dsMY5onoQ3AAAELoIbgAAqAU0ZPEWsGjPGA1MRo8eXWaAUzqsUc7RH05zYcKa2uHcc+fLpEmp5pzgBgCA0EJwAwBADdOwJSEhweeAxQlw9Os0XKmKsEarfJzvg5qnO0rpzlKK4AYAgNBCcAMAQA2644475JtvvqlQ0DJw4EATsGzevNlcrmhY4yzB0vvSQVhT+zjBzaBBMbJo0Uh7FgAAhAKCGwAAaohWytx5550He9lUJw1qNLDRZVeENbWfE9zoNuC6HTgAAAgdBDcAANQAbT587rnnVqhKpqKcsEZH586dzVIoDW1Q+xHcAAAQughuAACoAdpLRsObqqZhjfrLX/5iwhpnORTqFoIbAABCF8ENAADVTAMbTztCBUrpsEY5R9RNBDcAAIQughsAAKpZYmKi9UF8jH0pMAhrgluzZlMlM/MAwQ0AACGI4AYAgGp29dVXH9zCOxCeeeYZ0y9HEdYEp7CwyeZ4xx2drfe7nzkHAAChIdw+AgCAKvTuu++accIJJ5jtvwPJaTZMaBP8YmPr2WcAACBUUHEDAEAV0aDGOW7atMmcb9682RwDKSMjg4bDQc6puElI6CETJvQ05wAAIDQQ3AAAEEDVFdY4tNpm0aJF9iUEK4IbAABCF8ENAACV9N5775mje1jjHKvSwIED5e23367SHapQ8xYvzrLe49/NOcENAAChh+AGAIAK0C29ly5dWu1hjbu33nrLNDpGcNNtwHU7cPX110fKuee2NucAACA0ENwAAOAj97BG+8pkZmZWOKzRbbuVs7TKX/r1uptUs2bN7BkEK/fgRrcC1y3BAQBA6CC4AQCgHEuWLDFDl0NpWKOjomHNVVdddfDYtWtXc37eeeeZ+/eHfn1CQoJ06dLFnkEwI7gBACC0EdwAAOCBBjUaqCQmJgY8rHEPXBYuXGi+x913323PlE3vw7kfQpvQQXADAEBoI7gBAMDmhDU6Nm7caJZCaWjjL29hTWn6PTTAcSp73GkDYueo1TkENqGH4AYAgNBGcAMACGlOUKLH6gxrPPFU2eP0sImNjaWfTYh67rlNcscdK805wQ0AAKGH4AYAEHLef/99c3TCGuUc/aFVMDquvPLKg2GNc6wsrb6555575Oeff7ZnEKomTlwrCQnrzHl6+inSrFk9cw4AAEIDwQ0AICRURVijFTA6AhXWuNO+N2PGjBH+Mw334Ka4eKw5AgCA0EFwAwAIWnUtrHFHcAMHwQ0AAKGN4AYAEFScsEaPGzZsMOcVCWuUBjUa2IwePbpawhp32u9m/vz5cvLJJ9szCFUENwAAhDaCGwBAnaf9YJYuXRrQsGbAgAHSrVu3gxU2QE05//wF8vXXO8w5wQ0AAKGH4AYAUCe5hzXp6emmQqUyYY1zJKxBbaNbgeuW4IrgBgCA0ENwAwCoUz744IMSYY1TYeMvJ6y54oorTFijnGNtoMHUfffdJz/99JM9g1DlBDcDBsRYPxcj7VkAABAqCG4AALWehjVOhY0GNcEa1rijOTEcTnAzenScTJs23J4FAAChguAGAFArlQ5rnAobf9WlsMadPt+4uDiCGxDcAAAQ4ghuAAC1hoY1ymkyHGphTWlTp06VU045xb6EUEVwAwBAaCO4AQDUKCes0eP69evNeUWWQukuUDo0rOnevbuZq4thDVBaXNxUSU8/QHADAECIIrgBAFS7qghrmjdvbkawhDW6REyfG+qemTN1O3rrL1lhIr16iRx9tH1FBYWFTTZHghsAAEITwQ0AoFoEKqxRGtQEY1jjTpsTP/744zJlyhR7BnXB/Pm6xE1kxQqR8HCR3r1Fxo4VGTTIvkEFOMHNbbd1luee62fOAQBA6CC4AQBUGa0aWbZsWYmwxjn6S4Oa/v37myoUXQrlLIcKVuwqVTd9/rlIfr5Inz6uy99+K9K+vci117ouV4QT3CQk9JAJE3qacwAAEDoIbgAAAeUe1mhzYR2BCmucCptQQHBTN6WkiERGirRs6br8/vsiu3eLHH+8yJAhrjl/EdwAABDaCG4AAJUW6LBGXX755SEX1rjT13Du3Lly2mmn2TOoi159VSQnR+Sqq7TJsD3ph6VLs2TgwN/NOcENAAChieAGAFBhH374oQlttDqkMmGNhjTOsUePHuY82JdCIfi9/bar5432t7nuOnvST7oNuG4HrghuAAAITQQ3AAC/OGGNVtisW7fuYIWNvwhrEMwWLBB59lmRhg1FRowQufpq+wo/uQc3X355pJx/fmtzDgAAQgfBDQDAKw1rnCNhTfXQcOz+++83O0uxLXjds2uXyLZtIg0aiHzxhW5dL3LeefaVfnAPbnQrcN0SHAAAhBaCGwCAR6XDGlWRpVAaOmiDYcIa/zjNiadNm2Z9WB9tz6IuevBBkdhYkfvusyf8QHADAAAIbgAAB3300Ufm6B7WOEd/ODtBXXbZZRIXF2eaCzuhDXxDcFM3zZwpEhPjqrBx/POfIu3aidx4oz3hxUcf5Zrj0qUF1s9BusyZ4wpMhw3rbv0+WXdu5MjkyW3scwAAEMwIbgAgxBHW1E5paWnWB/Y51of1Yeb1RN3w2WciqakiTZqIhIeLFBSIZGWJjBsn0r69faNy6C5S48ZtMudpaUWSnh5pnWWYyyJR1sh3nUqhFBcfb58DAIBgRnADACEoUGGN0iVQGtpoVQhhDUJdSor+XoksWeIKbtq2FbnpJpGOHe0beOFaGjXfvqQ0uClwnRqHzouLx9pnAAAgmBHcAECI0F2gdGhos3btWjNX0bBGq2o0rNHRs2dPE9hQFQK4bNok4vTubtxYpFcv17kvNLi57bYV1u/qXnvmkP79m5jh+PDDwfYZAAAIZgQ3ABDE3MMaXXqjozJhjXMkrKl6+r498MAD8thjj5mADKEhLS3f+h3db47qo4+2WyPZnM+adaz1O1fPnKsePRrZZwAAIJgR3ABAENKgpirCGsVSqOpBc2KoiRPXSkKC6/eXpVEAAIQmghsACBIff/zxwQobXQrlLIfylxPWXHrppQfDGueI6kNwAzVu3AL58ssd5pzgBgCA0ERwAwB1WOmwxqmw8RdhTe2j7+Prr78u119/PUvSQtiYMbNN3xtFcAMAQGgiuAGAOkbDGuU0GSasCV76vhLahDYnuNGmxEuXjrJnAQBAKCG4AYA6wAlr9LhmzRpzXpGlUNrk9ogjjjBhTS97qxvCGqD2coKb0aPjZNq04fYsAAAIJQQ3AFBLVUVY06JFC1PBQVhT++nyt+XLl5v3jl2lQhfBDQAAILgBgFokUGGN0qCGsKbu0ubEN9xwg7z22ms0Jw5hBDcAAIDgBgBqmFNZEaiwxqmw0aVQhDV1F7tKQRHcAAAAghsAqAEa1qxYscKENbt37zZNaJ3Qxl8a1mhQ44Q1Wl2jVTao2/TnomXLlrJr1y7ezxDWosXP1p8P+QQ3AACEMIIbAKgmgQ5r1CWXXEJYE8S+/fZbOfvss+1LCEVhYZPN8ZZbOssLL/Qz5wAAILQQ3ABAFfvkk09MaKNLXwIZ1ijnCCA4OcFNQkIPmTCBpY8AAIQighsAqAIa1mjfGh2rV682gY1W2fhLQxrn2Lt3b3NOWBManB2lnCNCE8ENAAAguAGAANGwxjkS1qCytELr2WeflTvuuIPmxCGM4AYAABDcAEAllA5rVEWWQjnNhQlr4GBXKSxfvlf6959hzgluAAAIXQQ3AOCnTz/91Bzdwxrn6A8nrLn44otNY2EdTmgDsKsUdBtw3Q5cff75EBk3ro05BwAAoYXgBgB8QFiDmvDNN9/Iueeea19CqHEPbnQrcN0SHAAAhB6CGwAoQ6DCGqVLoPr162eWvBDWAPAFwQ0AAFAENwDgRnfwWbFiRUDDGq2w0aDGqbABfMGuUiC4AQAAiuAGQMhzwhqtsNF+ItpbpKJhjS6Bco59+vQhrEGFaXPi559/Xm677TaaE4coghsAAKAIbgCELA1qqiKsUSyFQmWxqxReemmz3HLLCnNOcAMAQOgiuAEQUjSocSpsVq1aRViDWotdpTBx4lpJSFhnznftOtn6OahvzgEAQGghuAEQ9D777LMSYY1TYeMvJ6y56KKLDoY1zhGoCl999ZWcf/759iWEGvfgprh4rDkCAIDQQ3ADIChpWKO0woawBkBdRHADAAAUwQ2AoFE6rFHO0R/OTlCENahJ7CoFghsAAKAIbgDUaU5Yo8eVK1ea84qGNTo0rNG+IjoIa1CTtDnxiy++KLfccgvNiUPURRctlM8/TzHnBDcAAIQughsAdU6gwhqlQQ1hDWojdpWCbgWuW4IrghsAAEIXwQ2AOkEbC+sIVFjjVNj07duXsAa1kvZlio+PJ7gJYU5w069fE1m+fJQ9CwAAQg3BDYBayz2s0Q+xOgIV1uj2ylphA9RmX375pYwaNYqf1RDlBDejR8fJtGnD7VkAABBqCG4A1Coa1GhFjXtY41TY+EvDGnXhhReasMZZDgUAdQHBDQAAUAQ3AGqFzz//3IQ22tcjkGGNco5AXaK/D1ohhtBFcAMAABTBDYAa44Q1TpWNU2HjL8IaBCMNMV966SVJSEggwAlR8fE/W38m5hPcAAAQ4ghu6rBV27OlsOjQ23dEh8b2GZZv22efBfZ1WZmULUXWr0x4WJj0bd/InoU/NKxxjhrYVDSs0ZDGOTofaglrEEzYVQphYZPNkeAGAIDQRnBTR73/e4r8vjpT9uUVmMvFRSKnDoyTo7s1rZFAYcmWvbImZb90iIuSET2a2rO+m74qQ35flSkXDIuXPu0q/vjnb8ySWev2yJ9rMiUs3PW6DLcezzE9Y2Votxj7VhXz5m/bZaZ1v/kFRVIvIsy6v6Zyy6kd7GsPeXPadjmifWPzfeFSOqxRFVkK5TQWJqxBKNBAk12lQpsT3Nx8cyd58cUjzDkAAAg9BDd1zLQVGdZIl/BwkVG9m8mBQtfbp/87dWmaRNcPl+Os+dMGxpn56vLO9GRJSs+T8aPaSPu4KHvWN/M2ZMkHM1Nk4aYseeTi7jKqTzP7Gv/o/XwxJ1VyDxTJ6YPiJMz6P31dvp63U+Jj6ltzLeSYnhULUybN3yUf/5Eix/SKlZ5tGsmyrXtla1qetG1WXx44p4t9K5d3p6fIuh375dJjW0u/EK7KqYqwRj/EanNhwhqECv390dCGptqhyQluEhJ6yIQJPc05AAAIPQQ3dYhWtbzx63YTRmilR+nKlI/+2CEzVmVIg8hwue7EdtW2dOqHxbtlyeZ90iU+Si45prU967vHJ22WSfN3iv4kPnl5jwoHN89M3iobUvfLkV1j5OrRbe1ZVwXMgo1Z0rZZA/nn+V3tWd/9sSZTvpidKvUiwuW+czpJiyb1ZUdmvny/cJc1dstdYzuWeMype/LlsW82yYieTeXiEf6/HnXZF198YY7uYY1z9IcGMxrYjBs37mBY41TYAECoILgBAAAq3D6iDpizfo9sTcuVm085PLRRJ/VvLkO6xEjTRpES37S+PVv1ZqzMkIKiYhndt7k947spS9Jk6+4ciW4QIZERYdZfUu0rKqB540g5rnesWTLm7oxBLSQ2OtL6Prn2jH90+VeXVtFyzZi2JrRRrWPrS8cWURJh/Qat3J5t5hytrNe+R5to2ZCaY6qAgp2GNTouvvhi00RVh27lrYGNv6GNVtVMmDDBNGTVozYd1moDQhuEooqEngAAAAg+BDd1xOIte00Q0K55gzJ72OhyoLGDW8gVx7Ux595oo11t4lvW8IUub8rKKZBmjSJNmOGPpdZzmr4yQxpHRZq+OA3r649jxZObkwfEyYlHNDeVNe70coN6ERW+Zw1ozhvaUnqXCsuy8wplb26hRHhIm84c0lJSMvJNz51gpB8oAx3WfPrpp+b4t7/9jbAGsGiPG/0dI8AJTStW7LXPAABAqGOpVB3x1dyd8uvydFNp46khrr++W7hLvp2/S/bnF9ozhzvnyHi5aEQr+5Jnz0/ZKpt35sqoPrFy7tB4e9Y3//lqo+zee0D6dWgs9SPDTQ+Zh87rKiN7x9q3CAwNl96fuUOKCovlufG97NnKWbFtn3xjvX6/WO/JWzf0lS7xDe1rDrn9nTXSvHE9mTDO/+VZtZF+eFy1apVZBrVz507zobKiHyg1rFG6FEoDGl0KpUuiABzCrlKhLTExzXr/Z5vzzz4bYv252cacAwCA0ENwU0e8lZgsiSsy5OQBzeXKkZX/y9ua5GzTXLegsMieOZwuEfLWJ+fa11ea6p7bTuvoV8WN9ut59JtNckLf5nL6kBYya+0eeTtxe5UEN//9foss3bbP7PR071md7NmKe2lqksxelym5+YXSs20j01DZk4QvNsiBgmK5+JhWMqBjE3u27nGWQmlYo6OiYY2GNM7xiCNcu6NQVQOUTX/fWrVqRXATotyDG90KXLcEBwAAoYngpo545ecks5vUWUe2DEhwEyinPbbIBC0PnVdyZyVvtNpmf16R3HRKexMQfTortUqCm5+WpMnHf+yQ5k3qyc3W9+rWKtq+puK019DUJelmK3bd1Ut76Gh/odK0Gik5I89sG37B0XWrmkSDGt0BSsfy5csJa4AaoksIteqGirTQQ3ADAAAc9LipI+pHhkn9erXv7crJK5Qo05vGdz8vTZctu3Nl/Oi2JrSpKtNXZcikBbukScMI00MnEKGNGta9qWlU/Ncx7aSwqNhsN7506+G9CBo1iJCiIpF9OWUvR6tNNKz517/+JZdcconpWaMNgvVDo7+hjYY0Oj755JOD/W+0T4cGNoQ2gH/0d4fQBgAAILQR3NQRMQ0jpXGDCNmXG7gQQJsTL9u6r8zhi6LiYgkvYyso535WJB26L91l6aelu0VXaGlTY71+rjWXlJ4r+/MKZdPOHPuWlaNbeH85Z6fkHSiS605sL6P7VmyL8bJok+iebaJlQMfGsmp7thmlRYSHma3bNdyprb788kszLr30Upk4cWKJsEaXafjKCWs+/vhj02BYB2ENUDla8QYAAACwVKqO+GVZukxetEvCwsLk6St72rOHW7JlnyzYlGV2ULp6dFvXpAffL9wtk+bvkpzymhMf1VIuHF5+c+JRCfPl3KEt5a6xh3rHaBDz++oMWbTJVYVSLyJMhvVoapZALdi4Vz6fnSqZ+w9Iu+ZREhkeJvkFRZK294DZ6rxH62hzf8f2ipV+7cvvr1OWGasyTTNnXaZ039md5KiuMfY1gafVNk9+u1luPLmD/GVUySVsbycmm63C+7VrZKqLagsNapRW2OgyKOUc/dG3b18zLrjggoPLoJwjgMrT5sSvvfaa/POf/zS/awgtr7yyRf72N9efzSyVAgAgtBHc1BG7svLlw5k7ZMqSNHnkkm5yZBfPYcRrvyTJbysyZGi3GLnnzLIb8a5OzpZtu3PlQDnVIB2aR0n/juWHJ9rj5rheTeUf5x/aOSkpLVc278qVrNwCc1krcnS78M4tG5qKoa27cyTngFtTZOshTF2aJjNXZ8qZR7aQsYNbSqcWURLf1L/txdXPy9Ll+4W7ZG9OoVx7Qjs5pmdT+5qKm7xot6Rk5Jn7K+2tadvlvd9T5JZTO8q4YSWXMzw/ZZskp+fJsO4xcl4N97ipirBGl2/oIKwBqga7SoW2iRPXSkLCOnOemnqS9edtA3MOAABCD8FNHbJxZ47868uNZovpC4fFy4ieJZv4/rw0zVTR5BcUy/3ndJaurQ7fojrQbnhjlcQ1qSdXHNda+lawQka9/3uKvD8jRe47u7PHRr++mLU2U76Yu9Ps5HTVqDYBq7R5Z3qyqeIZ069ZicbQi7fsNUGZLoWacEE3s3zK3YQvXLtK6fbtbZtV/1+4nbBGj8uWLTPnFQlrlAY1OnSHG8IaoHqwq1Rocw9uiovHmiMAAAhNBDd1zKezdsgfa/ZIm9j6ZivqKLthsS43Wrxpr+QXFpu+K5ce29rMV7UXf9om63fsl1F9msn5lagqKW9XKQ1kSodUnjzw8XqZt3GPdIyLkrOPain1Ikq2cIqNjjRLsNzpcq7BXcrfqnvr7lz58I8U63nmyOmD4sxrrq/zptQc2bQrxzzei0cc/nrf/s5qiWtSXx6+4FA1UlXTnhirVq0KWFij1TV9+vSR/v37E9YANUD7Rp144ok0KA5BBDcAAMBBcFPH6JKpHZn58u2CXZKcmWd62ajCwmLp1jpaxg5uYSpg4mP8X2ZUEbok6slvN0mfdo3l1tM62LP+02279TkljOsqLUs99gmfb5Azh7Q0y7/Kc9vbq02fnKj6EWZpljYHdtepRUO596xDy8emr8wwVTO3n97RninbxtQc+WBmiqRar78u7dIqm7jG9eSiEa1MNU3px7xwU5ap1NEqpBtPam/PVg33sCY1NdX8K32gwhpnORQAoHoR3AAAAAfBTR2lPWoyswvMrk6OVk0bSLdqWB5V2r0frJUmDSMrVVmy0w6ktFqotJembpOzj2zpdevwxZv3Su6BohKvibvGUZEl7l+Xns1YlSHjj/etcfC6Hfslfd+Bg7tElb4/d8//uE2y8wvlkhGtpEt84N+TQIc1zpGwBgBqh4svXiiffZZizgluAAAIbQQ3qLQlW/bK5EVpMqhTYzljcAt7NnBenpokfzsl8FUruhW5Vty4960JlL+9tVpG92lmKnIC6auvvjKhjTYt1bDGWQ7lLyesOf/8801Yo5wjgNpBf9cfeeQReeihh9hVKgSNGTPb+rM+Tfr0aWz9LBxvzwIAgFBEcIOAeG9GiiSl58o5R7aUfh0q3qTYE91uW5sWB9p3C3bJ7n0H5GofK258pVuR6zbg14xuG5CmxE5YoxU2GtQ4FTb+IqwB6hZ2lQptTnCj24DrduAAACB0EdwgILal5ZomwqP6NpfWFdjGuzzfzNsp5w4N/NId3bb8QGFxwJcyvZOYLMf2jpUeraPtGf9pWKOcJsOENUDoIbgJbQQ3AADAQXCDgEndky+tAhzaKG3IXLr5b22WlJYn7eP8r7Rxwho9Ll261JxXZCmUNhbWoWHNgAEDzBxhDVD3aGD7yy+/yEknnWS2BUdoIbgBAAAOghugBlVFWKMf8HQQ1gBA3UVwAwAAHAQ3QDUjrAEAeNO69S+SmppHcAMAAAhugOrw9ddfm6N7WOMc/aVBTe/evU3PCw1rnOVQAIKLNiTXPzvOO+88E9IitISFTTbHm27qJC+/fIQ5BwAAoYngBnCzNnmfrN2+x5yvS95rjhIWIWOPaiM92/q3W5Z+6Fq9enVAwxr98KZBjVNhAyB4aXPiSy65RD755BMT1CK0OMFNQkIPmTChpzkHAAChieAGsHw/L0m+n7VRdu7Jk1179osUh8murDz9m7OEhUdK346x0rJplJw5rLOceVRr+6sO5x7WaGNRHZUJa5T+azthDRB62FUqtBHcAAAAB8ENQt73czbLk58ulGWbdluXrF8H8ysR5gptrCFh4SLhkeZ4ROcWct4xnWXssA7Ss82hChxdzqBjx44dlQprNKRxjgMHDjTnLIUCQpP+WXLTTTfJK6+8QmgbgghuAACAg+AGIWvt9kx5+rO5smLTbllujeKDoY3NBDfheiISHmEdIiTMOsY3j5HzRnaXo5tsPlhhs2TJEsIaAAGnf67w50HoWbVqn/TtO92cE9wAAACCG4Ss8ydMkt8WbhIpKrADGw1urEOYnmqljZ6Hm2EqbyTCBDhh4fUkPq6JNNnxq2yb/535V3F/EdYAAMqi24DrduDqk08Gy8UXtzXnAAAgNBHcICQ9/dk8+de7v1tn1o9/UaFr0glulOY0ruTG+n97GOESFlHPLJ0qyt4p2XNfl8Ks7fZ15SOsAeAPrejThuTOEaHDPbjRrcB1S3AAABC6dB0IEFLWbkuTVyfNdwU2RUXWjKY1bqGNMuf6P9b1xdbQ25lRIMUFudbIl/DolhLZsrfesEy6E5QGNe+++65MmDDBjCuvvNIENoQ2AMqj1Xx/+ctfKlTVBwAAgOBBcIOQ89bkxbIzLcsVyJhhTbqHNg5nXovSnNseDHLyzQir30hvWYJ7WPPcc8+ZsOaqq64yVTZOpQ0A+OK9996zzwAAABCqWCqFkNPzshdlZ3q2fakCnFVTYRFSsGu1ZM//n7moYc25554rrVu3NjvAENIAqAzdpa5NmzaSkpJi/lxB6GCpFAAAcEdwg5Ciy6SOvv5NVyVNZWh4Y91HjzaN5KTW202VzaBBgwhrAASUVu7pcimElldf3SI33bTcnBPcAAAAlkohpMxcurXyoY2y76N1mzZy++23mw9WhDYAAo3QJjSlpubZZ7r8trF9BgAAQhXBDUJKbOMo+ywAiotl7PBuLGEAUCVWr15d4ojQ1Lp1A/sMAACEKoIbhJRjB3S0zwIgLEzOG9nDvgAAgaU9bq6++mpzBAAAQOgiuEFIadXs8F2gKmrsiB4BvT8AKO2dd96xzwAAABCqCG4QcjRwqaweHeLk/iuOtS8BQOBp03P3I0LH6tWV2PkQAAAEHYIbhBwNXCob3lxzxiDp362VfQkAAk/7Z7399tv00QpBO3Ycak4MAABAcIOQo4FLZapl7rhomJw/uo99CQCqzvjx4+0zhCJ2lAIAAIrgBiFJwxsNYHTJk6+0Suelu86Qm84bSm8bAFWOXaXAjlIAAEAR3CBkaQDz2A0neA1wNLDR22iVzuWn9Ce0QZVZt4O+FjhEd5O65ppr2FUKAAAgxIUVW+xzICSlpmfL0g2pkpqxT9ZtS7dntQFxc3Mc0K2VtGrWWFo1J7BBYP24IEWkuEh+nL/NXE7dc0BaNa0vEh4uPdo2ldOPai/dW0eb6xB6EhMTZcyYMTJt2jQZPXq0PYtQMGbMbOv9T7Pe9zjr/R9uzwIAgFBFcAO40RDHQVCDqvLjgu3yw+yNsmxLpkhRkSzdbAeGYWH6PyLhEdK6WSPp3yVOjuvXmgAnRKWkpEjbtm0lOTlZ2rRpY88iFLRp84tpUExwAwAAFMENAFSjH+dukcc/nS9LN+y0Lll//Dp/BDuhjR7Dwq1DhAlwWjWPkQFd42T8yb3k9CHsLhRq3nrrLbNcCqElLGyyORLcAAAARXADANXk+a8Xy5eJq2TJhh12YFPkukIDG3MI109srtBGA5zwSNd5RH0Z2KONTHv0FNftAAQ1J7i54YaO8uqr/c05AAAIXTQnBoBq8MOcjfLy1/NkyfpkkcICkSIdhda5NQ6eW0drFBcecI2CPHvkypK12+XH+Un2vQEIBW3asKsUAAAQKm4AoKqtS0qXvz71gyxdZ+8OVGxX2rj/8WuKbpzKGz0eOg+LqGcd68nAHq3lzbtOku5tm7iuQ9C79tpr5d5775VevXrZM4G3YsUK6devn32pZs2fP1/S0tLsSyIdOnSQvn372pd8s2bNGrMTV25urkRHR8vIkSPtaw5ZunSppKamSlGRU/VWUuvWrWXgwIH2pernVNwkJPSQCRN6mnMAABC6CG4AoIo9+Ppv8vI3C9yCGvtY+k9fzWqcORPe2MyyqXomwHnm1lNk/Ek97CsQ7MKs974qd5XSnav+/PNPOf3002Xw4MH2bM2YPn26/PTTT7Jt2zYJDw+XvLw8E57oYxs0aJB9K+9eeOEFWb16tezdu1diYmLMazdu3Dj7WpdXXnnFhEQFBQX2jBa/FUpmZqYJfE488UR54IEH7GuqH8ENAABwx1IpAKhiX05fJbp7lAluzLAmS4c2yn3Oua1OaoVO0QHrk+UBSU3f57oeCIBVq1bJ5s2bZcuWLfZMzZg6dar88ssvEhUVJZdccolcfPHFcumll8qGDRvk7bfftm/l3Ycffii7d++Wc845x9zH2WefLbNmzZJJkybZt3AZMWKEXHjhheY2ztDv27x5cxPmNGhQc0uU1qzhdxwAAJREcAMAVUiXSaWm+fdBrCh7lxmGE+YUF1n/f0DWbTu0jATB74033qjSZVK1xe+//y4REREmQBk7dqycccYZJnwZMGCA7NmzR3744Qf7lmWbMWOGfPfdd3LeeefJKaecYu5Hj7rUSr9++fLl9i3FVPCcdtpp5vs4o2PHjmb51LBhw0zgU1NSUvLsM5GePRvbZwAAIJQR3ABAFXrnh8X2mXcHdq6SnBVfSs6ayWbkbZ7hCnDswhut2qHiJrRoj5s2bdrYl/zz66+/yuuvv35wfPPNN7Jy5Ur72kOcJUI//vijvPfeewdvW53OPPNMueCCCw4LqTS86dy5s8yZM8eeKZsGM/Xr1z9sWdWpp54q+fn5ppdPeTQ80mqbyy+/XLp3727P1iyaEwMAAEVwAwBVKDv3gH1WPg1o8jb8IvlJ86Rg12oz8jf/bgKcQ9U3xXLa0V1c50A5Zs6caYKIhQsXyuLFi00/Fw1yfvvtN/sWh2hoo7ebO3euLFq0SObNm2d63/ga3ixbtswsc9L+NJ7G7Nmz7VuWTatc+vc/fNtr7TdTr1490/PGm5ycHNPMuLT27dtL48aNTTVNWfQ10mDnpJNOMlU+AAAAtQnBDQBUodbNG9ln5ctPmiuFWdvtSy5FeXtNgKPhjVbjaJPiC0bRmDiUXH/99WaXJH/okiENbuLi4mT8+PHyl7/8Ra6++moTYGjTXu0n4y4jI8NU4ujSossuu8zctkePHjJ58mRTheONNjf+5JNP5KOPPvI4NLxZsmSJfWv/aKC0a9cuiY+Pt2c80+elzYz1OXsSGRlpnmdZNFzS3ay07w0AAEBtQ3ADAFWoe/vm9ln5DqSUvaRKwxutxunUIFVaN4u2Z71bnZxtn9VO63fsl+Xb9pmxMimwS8Cc+121PbCvwcrtrvtdYT3eddbjr2ra4yYlJcW+5BttxqsbRmrfluHDh5tqFm3G261bN1O5ote7a9Kkial2Oeqoo2To0KFyzDHHyFlnnSXt2rWTr776ymtwpPevy5wuuugij0OrWGJjY+1b+2fBggVmlym9j/IkJyebJV+6VKosBw54rn7TCiNtgqxbgNeWJVIAAADuCG4AoAodN6CjfVa+8Jj29plnWo2TtuwH+f777+2Z8n00M0We+2GrfGgda9rMNZny4+LdsjblUNAxY1WG/C8xWZ61HuPzP26VF6ZsC8hjXbJlr/zvt2R5zrpP534nzd9pX1s5L09Nkhd/2ua63x+3yZu/bpdlWw8PnN7/PUXmbsiyL1U/3cpae8ZoUKO0GubRRx+VL774wgQUWpniTgOL6667zr7koo16dZclrXbZtGmTPeuZ9pTRLbu1YsfTOPbYY6VTp072rX2nj3vHjh3Su3dvUwFUVbTaRqtxrrrqKnumZq1dW7sDVwAAUP0IbgCgCrVu3lhOG+b6AF2eqO4nSXijFvYlz7ZvWiMJCQny3//+154p2y/L001FyM/L0q1RsztRfb9wl+zOOiBNoiLMZQ1t3pmRYnY7P21QnJw6sIWcPCBOJi/cLZ/8mVoi4PHHGuvrpi5Nlzkb9lj36brf5o0j5VfrNahMKLRye7a8PHWbzLPu9+T+rvs9xbr//fmF8uZv22X+xpIhjc7/bj3HRZv32jMV99prr0nPnj3tS77Ryhnd3lubDL/66qvy888/H6xI0Uqc0ho2bGh2XipNAxOt0NHGvtXt888/N0u+9HFVdaCyc+dO8xoceeSR9kzNSknJtc90VynflloCAIDgRnADAFXs/iuO8xreRMS0k4a9xkpkyz72jGe6dESDm/LCm6lL0yS/oFj6d2gsEWFh8suydPua6vft/F1SWFQsx/dtJm2auXbI+XV5ugkQ/jKqjYwb1kouGBYv5x8dL73aNrIe+26Zu36PuZ2/Zq7OkG1pudK7XfTB+/3rmHYS16S+dV2mx+oYX6zYtk8mL9otx/aKlfOGxh98vH89oZ1s3p0jv1v37e7MwS1kb26BLA5AcKM9btq2bWtf8o1ufa29abTPje60pAHMDTfcYJY/eVoKFGb9jHji9I3RwKc8S5cuNeFQ6abEzvClObE77a2jX6e7SWnPGV+2Q9fnqH1sSlcTuWvQ4PAdmrT3jn5Ny5Yt7ZnapW3bKPsMAACEMoIbAKhig3q0NuGNt343Gtpo5Y238EZ7nmhwox/GPfUf+X7hboltFCmDu8RIy5h6siMzv0b63WgvmO8W7jKBTMcWhz6AtmraQG46ub30aVeymuCyY1vLgcJiSUov+8N3eRpEhku/9o3krCGHPoR3iW8orZvVl4KiYus1qFglz8BOTWRY96Zy+qCSjW8HWfPtmkVJSkaeqcpxtGseJS2b1JddWfmyMADhjb+0+XB0dLTZSlybE2v/Ge1ho+GEpx4wRUVF9llJ69atM7s6eaPNiT/99FP5+OOPPQ59PL42J9bbTpo0ySzVOvfcc31eIqXhlgYzurTLE+1v06xZM/vSIbqTlFYVtWrVyp4BAACofQhuAKAaaHjzn2vHyC3nD7VnPNPKGw1veg861p7xTMMbXQpz7733ytq1a+1ZkYWbsmRD6n7p3ipaRvdtJh3iokzFS+nlPOXRpsErk7JNpYmnsd66f18ss26bvu+AnNivZGB1xuAWcnS3pvalQ3q0iZbICP3P0uHLeXyhVT163z1al2zgvC+3UHLzi6z7tif81NN6XJcf19oEMqU1rO/6z2hqZsmwqWt8Q7Nkauaqsncy8sWNN95Y4v31hW6LrcHHqFGjzLKprl27mnntF6Oj9HIpDWe0QW9pGoJERUXJ4MGD7RnPtDnx+eefL+PGjfM4TjjhBJ+aE3/77bemGbLuIKVNjf1dIqbBTVn9eHTLc087U+lOUo0aNTKPEQAAoLYiuAGAanLa8O5yywVHyzO3nWoCnO7tmpcYupxKx+3jz5WnnnhE7rrrLvsry/bdd9/JPffcc7BpsQY0e3ML5fTBLUyVS6eWUdKkYYRp2uur935PkRd/2irPT/E8PrCu96V/S3JGnjSNjjRVL+46W4/JE21iXFBYJNENKpawaEilw928DVmyZVeuREaEyZFdYuxZ/3Vr5Xk3L32OUfXDpXfbktVDWu0UGR4um3fl2DMVoz1utD+NP7SCZs+eksvNFi9ebJYsrVq16rDrtm7dKi+99FKJgEiX5M2dO9dU6uiSpfJosKM7WGlDZE/juOOO89qcWJd3TZ8+3VS+XH755Wbpk790F6yIiAizbMvd119/LU2bNjUBU2ka3GjgU5XNj/1Fc2IAAFBaWLGnToUAgCq1I22fLF63w77k0jqusevYvLE51w/suiRKQxlvVRfaWPWWux+UDREDZNX2/fLFnQPMvAYLb/yaJIkrM+XZ8T1lYMcmZr48Py1Jk+y8Qikq4z8PMQ0jTVVL6UDGnVb+fDAzRepHRsjjl/q2xfKd7601FTpnDmkhFw6v3NIV7WejO1kt3rJXwsPCzFKnW0/rYF8bGNNXZsg/PlsvFw1v7fG+/zt5i6zeni1vXH94419faf+ZadOmyejRo+0Z755++mlZv369CSN0q2+VlZVletZs3LjRLBnS5r/qlVdeMT9fMTExZstwPWrFjlbmFBQUmJ2lNLypatqAWLf91uogfRzutHGwhjLur4H27tHHqduXO/T3RYNMPXbp0sU0VdYgR393dLnY0Ucfbd/ykFtvvVXatGkjDz74oD1T88aMmS2JiWmmMfGaNb6/7wAAIHhFJOgWJQCAatU4ur7peeM+NKzRodcp/dCtH5qPOOIIWbhwoakOKIsunVq9eq3kRDST0cP6y4ierqUpTRpGSnJ6nizYmCUx0ZEy1MMSpdK6t442/Wf6tm/scWj1SbNG9exbe6YNklcm7TfLn4b38P49v12wS6YsSZMhXZrI2EEtTKVOZeQdKDI9dhrUi7BGuNSPDDeVMW3tBsmVNWf9HnlnerJE14+Qa8a0lRZNDu8dszwp2/QX0iqg1rEV+766VfcxxxxzMIDxhVatpKammnBDlzvpz4aGE1r9osGMVpjoluFKe+Fo/xddmqQ7UWngowGKLm3S0KZfv37mdlVNq220CbIGLfpzro/ZGVohpI2Hddtxhy7v0h487pU5+hrp66W7RGnvJ60k2rt3r2lurI2ZPdEKJA2FBgxwBZ21wbvvJsnmzTnW736MjB/f3p4FAAChjIobAKgDtP/HG2+8cXBJVFmad+wnJ5xxgVxzw62m0kT/iNdeMz8uTjMhyr1ndTL9b6qabp+tuy2dNqiF2T2qPD8vTZNPZqVK46gI07S49LKjitJqo/yCIvM4dMlUTMMI+c/FvlX/lEdDG926fO2O/TJ2cAu5cqTn5/fhzB0ya90eGdU7Vi4aUb3Nbzds2FCiUa82Ju7WrZskJSWZMKNPn0MNsLUvjFaoaNih12mljQY8nrYIryq6M9X+/Z57J9WrV88sdSq9I5YGTB06HF7ppAGUhj9acaM9euLi4jzeTmlQpbdp3772BCROxc3o0XEybdpwexYAAIQyghsAqCPmz58vEydO9BreNIqNl+FnXSsd+x8vTeI7yd6cQklKzzVNiu88o5NZilQebU6cV2D9p6GM/zxoBYtW5ZTnxZ9cwc3ZR7Y0jX3L8vPSdPlu4U7zra49sZ1PS7n8lZSWK+/MSJY/Vu+RF67pVangSgMg3SlLd5LSSiJthtymjGqaj/9wBTd6O90xC/AFwQ0AACiN5sQAUEfoDkETJkyQsWPH2jOeZWfulD+/fVN++eBx6ROTaUKDO8/oaKpPtqV5395Ze9NoxcwLP3keWkmivWPKExbmGmX1yVGTF+2Wr+ftNH1crhrVtkpCG9U+LkoaR0VKVm6BNKpg42OlfXM0jNHlT9oz54xBZYc2Sp+6/tuIVj5V1N/+9je/d5UCAABAcCG4AYA6RMMbbU1255132jOe5ezZKduWTpMf33lU8rbOktM1ZGjWQNak7DeNg8szvEesnNCvmZx4RHOPQytImjYsvwdNo/oRUj8yzDQb9uSruTvli9mp0qhBuFxxXBsZ2q3iOz45Pvlzh3y/8NDyIHf78wolun54uUFLeXS52UtTt0nm/gMmtNElUvp6lic7v1DyC4qlWaOK9+vR5sH+7iqFuo1dpQAAQGkENwBQx2h4o1uAa3jTs2dPe9Yz7Y2jQc/kyZPliPaNTaPiOevKD25OGxgnFwxrZXZ28jROta4vb0cppc14tWFv6p48e+aQaSvT5et5uyQ+pr5cPjIwoY1auT3b7Ij187J0e8Zl+qoMs1zqiA4Vq+jRJsefzUqVPfsL5Pg+zeSMwXFeQxu1N6dAtN5oQCfXbmGAL5KTvVfFAQCA0MKuUgBQB7nvOPXjtFmSl73HvuZwWrGhy23atW0naWGtpF5kmKmcqUqNoiJk865ca+TIOUfF27Miq7Zny/+mJZtj5/goad6onmzcmSMbUg+NnPwiadX00C5NS7fuk6ycAolrXP5OVs2s69ft2C9rU3LMsrCNO3PNzk7z1u+RyIhw02vHfXcnva0GWe7fy5NPZ6WaXa80aGplfb1W0bg/3l17D5ido0r7dXmGWSqmIVhF6Q5Rxx57rF+7SqFumzhxnTmeckpLOeus6m1qDQAAaieCGwCoo/TDvG51vHR3Q9m5eYVk7820rzmchjfpKZvlQP5+6TdwqIzq08y+pmo0iYo0wc3izfukX/tGEm+HI7rkaO6GQxU/29LyTHCzPvXQCA8XGeDW7+bruTslc3+BHNGh/MoVU+XTuL6sTcmWFUnZstG6L935qWVMPTl3aLwM7FQy/JixMsP06vG2Xfmvy9NlR2aeacqclVNonpf7492TUyCtmjaQ5m7B0oJNe2V1crb1mOp7vf/yDB06lNAmxDjBzVlnxZsGxQAAAAQ3AFDHde7WU446orvk5WTLunWuD32e7N65Q/buWC9tmjWUPl1am22Sq5Ju7z17/R6JiAiXwZ1d4UP9euHSpWVDE2ZokNK7XSPp1Ta6xOjRupG0jDlUBaPhS4PIcOlj3dYbDW+aN6knna3v0attI+nbvpEM6RzjMfQJD9PlVfvl2F6x9oxnTRpGypAuMWbo/ZV+vD2txxtnfU8NqxxfzXPtlKU7eOmSMcBXTnCjoQ3BDQAAUGwHDgBBYt68eWa7cO1nU562bduaSo4nn3zSa4+cyvrftO1mudKNJ7WTXm28By+efDEnVaLrR5ittwNpTUq2TF2SLree1sGeCZyHP98gnVo0lL+OaWvPVMzNN98st99+e5W/T6gdtDFxr16J5jwhoYdMmMD7DgAAaE4MAEFDwxjdLlw/6JdHl01NmjRJ/v73v8sPP/xgz1YNbXSsocu8DeU3RC6PNgXWLcMDbV1KjqmUCbRJ83dKs+h6MrJ3+ZU8vnj55ZfZVaqW+/13kalTRWbMEFm50p6sIPfGxD16VCzoBAAAwYfgBgCCiIY39957r9fwRn3zzTdmx6mqDG/aNY+Si4bHm/Cmokb0iJX+HQL/IVaXXnlbJlURKZn5ctqgOOnZJtqeQbDSwOaLL0Q+/ljk009FvBS7+aVt28MbXgMAgNBEjxsACDIxMTFmx6nCwkJJT083oyxazaF9cdq1ayc9evSwZwNL+840jY40vWIqQvvdxFhfH2jaTDi2iu43UKFNy5Ytza5S+p6idlm7ViQxUeS440R0JVuvXmL9Lonk5rouV8TmzTny7rtJ5nz8+PbSuTPhHwAAoMcNAASt7du3y9y5c82SqPKaFqujjz5aLr/8crntttvsGQDlsX69ZOdOkcGD7QnLG29orymR11+3J/yUmJgmY8bMNufTpg2nOTEAADBYKgUAQUqraM477zx54okn5IwzzrBnPdOAR5sVP//88/YMgPJYv14lQhsVHS2SnW1fAAAACBCCGwAIchreaNNib+GNVuhoeHPrrbd6rdBB9eC9qFtSU0V697YvVMD69aQ+AADgcAQ3ABACdCmUhjenn366PeOZhjcvvviiT8urUPX0vdD3BLXf9OkimZki559vT1TA9u2HdpUCAABwENwAQIjQ8Eb70fvSx+brr7824c2PP/5ozwAoy/ffi/z2m8jYsSL9+tmTlcR24AAAwEFwAwAhRMOb++67z4Q33naR0vBGgx7Cm5pVVbt9ITB0K/AlS0ROOklk2DB7MgDatWM7cAAA4MJ24AAQYnRr6QEDBkjfvn1l4cKF5W4Xrst0dMlU+/btCRBqQFxcnJykiQBqpW++EVm5UuTMMysX2qxbVyhz5xaYXaWWLcswc82bt5c5cw5Yv5+uzT/j4vi3NgAAQhXbgQNACPvqq6/kzTff9FpVM8z6VKrbhWuzXAAiCxaI/POfIgMGiIwaJVKvnkhEhEhsrMiQIfaNvJgyJcv63cuXpKRC2b69yDruso5Z5rp27dqYY/v2B2T06Hry+OPdzGUAABB6qLgBgBDWp08f6d69u6msWb9+vT17OL1+6dKl1ofTetK8eXNTCYLqoRVPvN61z4wZIjNniuTm6nsksmKFyNq1Inv2iBxzjH0jLz78MEWeeGKzrFqVYf2OZcrevfus2SIz9u7NMmP79gzr965Axo9vb74GAACEHoIbAAhxugzKl/Bm7969JrxZvXq1DBkyhDChGtx+++3Srl076dy5sz2D2qJBA5GePUUGDtQA1LUNeK9errkOHewbeTF9+k5JTNRdw3Q3KR0HDhvdu0dZv28xcvbZrazLAAAgFLFUCgBgzJkzRz744AOzBbU3F1xwgVx77bVy2mmn2TOoCmFhYTJt2jQZPXq0PYNg8uGH22X27Ez7ki6d2iXr12dL9+6N5JZbOpm59u0bWiNKhg2LNZcBAEDoIbgBAByUlJQkTzzxhPUBckq51TdK+95o0SbhTdXR4Gbbtm2mKgrBJylJq2wOufLKxaZB8ejRcTJt2nB7FgAAhDq2KAAAHKQBwd///nd5/PHHzfKp8miFjgY3GvKgajz77LOENkFMK2ncBwAAgCdU3AAAPPriiy/kgQce8Fp5M3z4cLniiivk5ptvtmcAVESHDr+aKhwqbgAAgDuaEwMAPOrbt6+0bdvWNCUuL7zR5VXatLhBgwZmxykdCBx97XlNQ8Pdd68yx86do9lFCgAAHMRSKQBAmcaNGycTJkzw2sdGwxtdXuVLhQ58d+edd5rXFqGle/do+wwAAIDgBgDghS6F0vDG21IoDRic5VU//fSTPYvK0B43CD30uwEAAO4IbgAAXml4c//99/vUx0bDG12FS3gTGN6aRAMAACC40eMGAOCTmJgYGTBggOTn50tGRoakp6fb1xxOq290yVSHDh0IHiqhadOmcuqpp9qXEOwmTlxnjtqcWAcAAIAiuAEA+MwJb3r37i2LFi3yKbzJy8uTo48+2p6FP0aMGGGfIditX58tL7yw2ZwT3AAAAHcslQIA+KV9+/amafGjjz7qtRpk9uzZpmnxyy+/bM/AXzR7Dg26DbijW7dG9hkAAADBDQCggi688ELTtNhbeKOVN4899pjcfffdhBB+0teMXaVCD82JAQCAO4IbAECF6VIeX8Obp59+Wh588EHCGz/oawYAAIDQRnADAKgUJ7y56aab7Jmyff755/LQQw/J1KlT7RkAAAAA5aE5MQCg0nT3KG1anJuba3ac0lGWFStWyIYNG8zXdOvWzZ6FJ02aNJGRI0ea3aUQ3DZvzpF333Utixs/vr107hxtzgEAAKi4AQAEhAYxDzzwgGla7C2QmTVrlui/G1B5Uz7tcaOvK4Lfhg377TMAAICSqLgBAASMVob069dPWrduLVlZWaaypiza90avz8/Pl6FDh9qzQGj67rtUSUx0ba//73/3tH6X6plzAAAAKm4AAAF30UUXmb43p5xyij3jmVbe6I5Tr776arkhT6i69957eV1CUIcODe0zAAAAghsAQBU55phjfApvtm3bZpZXadNiQoqS/u///s+8PgAAAAhdBDcAgCrjhDc33nijPeOZhhOffvqpCW9+/vlnexYAAAAAPW4AAFVKm+sOHDhQcnJyfN5xqmPHjuw4ZWnUqJGMGjWKXaVCwFtvbZOlS/ea84SEnuYIAACgwoot9jkAAFVGq2r+/PNPn5ZEaaWO/rvCySefbM8AwW3MmNmSmJgm3bpFy/r1Y+xZAAAAlkoBAKqJVt5cfPHF8sgjj3itptGAR4MbbVoMhBIaEwMAgNIIbgAA1UrDm//85z9eq2k0vNGmxa+99lrINi3++9//TsNmAACAEEdwAwCodpdccolpWuwtvNHlVVqh849//CMkA4wnn3ySXaUAAABCHMENAKBGHHvssSa8ueGGG+wZzzS4+OSTT0x488svv9izAAAAQGhgVykAQI3R3aMGDBhgdpxasGCBPevZ8uXLZePGjeZrunbtas8Gt+joaBk5ciS7SoWAhx9eK1lZBdK5c7SMH9/engUAAGBXKQBALbB161azJEorajScKY9W6ui/OZx00kn2DFD3hYVNNsfRo+Nk2rTh5hwAAECxVAoAUOO0ika3Cdemxd6qaf744w8T3Lz++uv2DBA8unaNts8AAABcCG4AALWChjeXXnqpCW+8VdNoeKMVOsEe3tx///1eK5AQXDp2jLLPAAAAXAhuAAC1ioY32rTYW3jjLK964IEHgjbceOKJJ8zzBAAAQOgiuAEA1DrHHXecz+HN448/Lv/85z+pTEGdtXHjfvsMAADgcOwqBQColZzdoyIjI2XhwoX2rGfLli2T3bt3S2xsbFDtOBUVFSWjRo1iV6kgt2RJlrz7bpI51+bEOgAAABwENwCAWkvDm4EDB0p2drZkZmZKRkaGfc3hNLzRqptOnToFTXijlUeENsFv8+acg8HN1Vd3sH7mY8w5AACAYqkUAKBW0/DmH//4h/z73//2GsjMnDnT7Dj166+/2jNA3dKxY0P7DAAAwIXgBgBQ62l4c9lll5nw5sQTT7RnPXPCmzfeeMOeqbsefPBBevcAAACEOIIbAECdoeGNhjK+hDe6rbiGN3U5+HjsscfYVQoAACDEEdwAAOoUZ8cpb+GNBh4a3jz88MNUraBW27SJXaUAAEDZaE4MAKhztAFxly5dJCIiotwdp/bs2WOaFqelpZkdp/Rr6pL69eubXaX0sSN4ffttqiQmppvz8ePbS+fO0eYcAABAEdwAAOokDW90x6l9+/aZ3aZ016myaHizadOmg4FPXTFy5EhCmxAwfXraweBm4sSe1ntez5wDAAAolkoBAOosDWJ0x6l//etfXgOZ33//3fTH+e233+wZoPbp1IldpQAAQEkENwCAOk3DmyuuuMKv8OZ///ufPVO7aSillUIAAAAIXQQ3AICg4IQ3J5xwgj3jmYY3uq24hje1PRR55JFHZMuWLfYlBKtNm3LsMwAAgMMR3AAAgoaGN7rjlLfwRsMQDW/0tlS0oKZt2UJwAwAAykZzYgBAUHEaEIeHh8uiRYvs2cPpjlNLly6V9PT0WrvjVGRkpBx//PE0KA5y776bJJs351g/g9Fy++11a+czAABQ9cKKLfY5AABBQ6tqdOnUW2+9Zc+UTbfc1n/HGDNmjD0DVJ8xY2ZLYmKajB4dJ9OmDbdnAQAAXFgqBQAISlp58/DDD8s111zjtZpmxowZJriZNm2aPQMAAADUDgQ3AICg5YQ3EydO9Dm88aVCp7pokEQPHgAAgNBGcAMACGoa3lx55ZUmvPG2FErDG1+XV1UHDZLYVSr4bdq03z4DAAA4HMENACAkaHjjSx8bpzeOVurUdLWLBkkIfuwqBQAAykNwAwAIGdqEWLcA9yW80e3CNeip6fCmc+fO9hmCXefODe0zAACAQ9gOHAAQUjQI0REWFiaLFy+2Zz1bsmSJZGRkSLNmzWokQNEtzc855xz7EoLVxInrzPHcc1uZnaUAAADcEdwAAEKOhjADBw6UrKwsyczMNKMsGt5s3rz5YOBTnY4//nj7DMHMCW40tCG4AQAApbFUCgAQkjSE0T42+u8X3gKZ6dOnm9slJibaM9VHQyMAAACELoIbAEDI0sDmL3/5iwllRo8ebc965oQ377zzjj1T9fT7EdwEt82b2VEKAACUj+AGABDy/AlvdFtxDW+qI1DR74XgtnnzoR2lOneOts8AAAAOIbgBAMCi/WR0xylv4Y0GNhqoVFc1THX31UHN6dSJXaUAAMDhaE4MAIBNQxInKNGmxGXRZsZ6vR5jY2OrLFzRna/OPfdc+xKCkVbcvPtukjkfP749VTcAAOAwBDcAALjREGbQoEEmlNmzZ4/XHae2bNlSIvAJJG/VP6j7CG4AAIA3LJUCAKAUDWH03zV06ZS3QEZ3mtKlU1W14xTNiQEAAEIbwQ0AAB5oYDN+/Hi/wpt3333XngkMvU+Cm+C2Zcuh5sQAAACeENwAAFAOJ7zR5sXl0fBGq3Q0vAlU2MJq5uDnvh145840JwYAAIcjuAEAwAsNbzRE8RbeaGCjtwtkpUxV9M5B7UR/GwAA4AnNiQEA8IEGKDqKi4u97ji1ePFiycrKqvSOU/q9zjvvPPsSgtH06WmSmJhuzhMSepojAACAOypuAADwke7ypP/ecdVVV9kzZXv77bdN5c306dPtGf/p1wMAACC0EdwAAOCHLl26HAxvOnXqZM96Nm3atEqHNwhuuh04AABAeQhuAADwkxPePPzwwz6HN++//74947t///vfsmXLFvsSghHBDQAA8IbgBgCACtDw5pprrjHhzahRo+xZzzS80Z2p/A1v9L43bdpkX0Iw69SJHaUAAIBnBDcAAFSChjdafeMtvNEARsMbqmjgSZcu7CgFAAA8CyvWLSsAAEClaFWNBjgzZsywZ8rmVOp4W2alt7n66qtNdY8v5m/Mkk07c2RvbqE9U1JsdKQc0aGx9GzjOST4fuEuyT1QLF3jo2RIlxh7tmbMXrdHouuHy4BOTeyZ8i3evFcWWsPRrVVDOb5PM/uSbyYv2iXpewvkQFGxNImKkC7xDeWorpV/HZZu3SertmdLdp7rfenQvIGcPCDOnI8ZM1sSE9Nk9Og462douJnz5MfFu2XnngNSaP21LapeuHRsESXH9Yq1ry1J38eMfa7n0dC6bVvr+/n7WngzfWWGtIqtL73bNrJn/Kc/r/qaeHpsG1L3y6y1eyS/0PXXVH0e7aznMarUbZdv22d+3kf0aGrPAAAQfNgOHACAANBwRbf+LioqkqVLl9qzni1atMhsF96sWbNyw5sxY8aY2/jqkz9T5edl6bJld67szy2wPujnHxzb0vJk884cScrIlVZNG0hck3r2V7ks2rxX3p2eIn+szbQ+CBfI6L7N7Wuq34qkffLb8gwTUvRt39ieLdvCTVnyw+I06+uyJX3fAetDf46kZORLVH1XwOGLX6zX7cOZOyQ5M9/cR6r1mqVY5zENI6RVbAP7Vv7T1/W35emyxDru3psv2633YW1KjjSNjjSP7d13k0yfm86do2X8+Pb2Vx2yNS1XlmzZK5/P3impWfmy2xrrd+TIVus9blg/4rDn98eaTPl0VqrssB77Luu2+rOwNtn6fo0ipEOcb6+FNxq4vDw1SaLqRchAH4O10jRw+cR6nCut9+zUga4Qy6Eh19dzd8q8DVmStveA63nssp6H9bz1dXN/Hjus92nS/F3S0Zpr3rjkzzQAAMGC4AYAgADR8GbQoEGSnp4ue/bsMaMsGt5s3brVfI23yhtf/bYiXQ4UFssxPZvKOUPjZUjXmINDP2CHh4XJnPVZUlBULEO7lawkefWX7VJQWCQ5BwolN79IerSOlvim9e1rq9fbicnSqEGEHNsrVuK8fBhfm7Jfvpm3SzKyD8iVI9vKiJ6x0q9DYxNsaDjQqUXDw0Kq0rRa55VfkqRlk/py6bGtre/bzFSSJKXnmmqZDi2ipFmjioUCr1mv677cQjlvaEs5zrrfgZ2byDYNU3bsNxVQbzy/VTIzD5QZ3Py8NF1+Xp5uwraLR7Sy3rem0r11Q1lvff28jXvlzCEt7FuKrE7Olv9NS5b4mPpy0YjWMrxHrPRq00jWpGSb59HLek4VfR6OP9dmyoe/p8hM69jfep2HVbDS5c3ftpuKmnqR4XLuUS3tWRcNqf60rvvrCe3k2N6x5jn31OdhPb+Fm/aan03nPW1l/Yxq9c/+vKIKh0gAANR29LgBACCANIjRXaR8WQr122+/mduWtbzqP//5j8xcuFq2peWa4YvGUa7Kir7tGpUYgzs3kdF9m5nrlm3bZ4INhy5L0YqQds0aWLdtLGFhIlOXptnXVi8NGFZsyzbLe/QDujeJ1of2nVn50rllQxnWPUb6tW9kls30sZ5zQWGxTF3m/Xn8sjxd9uYUykUjWpmwSO/jyK5N5IQjmsua5P0yd33ZAVx5NBDSihetBDmudzPpa93voE5NZOyQFlJYVCyTF+2WTZv227c+nL7n63bsF13Vfs5RLc17qI9NlwuNHdxCcg+UXBKnQYgGWYOs22kwZ16Lnk3lyC4xsjE1R5ZZr21l/L4601RlLU/Ktl6vAhMAVsSsdXvMfaTtyzfPrbT9+YUmqDmhX3PzeunzMGHkkS1NODV3Q8n347RBLWTjrhxTmQQAQDAiuAEAIMA0vNE+Nv/85z9l5MiR9qxnTnjzwQcfmMuzVu+Up79ebo1l8u83f5QnP18i//fVMmssl2e+WSWz1lQ8UNGeLW2bNZCUDF2ucygw0A/SWdYH8U4tokwFh1YzLKnkh/yK+mlJmjSoF+5z9YT29GkQGSZjrA/57o7u3tRUYyzYmGXPeLbR+npdjqNLjoaXqh7R0CDC+pvSduv1qohpKzNMb5ZOLUvuGKV9c3TJz/b0PLnyBleVjaddpbRnzx7rfdGwbUDHkkvGRvZpJpcc09q+5KJhSk5+obSMKVkppSHYgcIiybWuq6g56/fIpHk7TUWXvk4xDSOt1ybMvtZ3m3flyAe/p5gwq2OLhlI/8vC/io7qE2tCtNL0OWvQsy+n5PPQoG7P/gKZtiLDngEAILgQ3AAAUEX++te/mobFvoQ3/37hI3n6i0XyxKcL5ZEP55nRsM/Z8sd664PuzyvNeOSTRfLkF8vks5lbJCktx/5q/+gH3NJVDtpnRBvN6pKUYd2bSptmDUxFji7H8YWGI1/MSZV3pid7HPpB/YdFu+1bl01DmJVJ+0yFRdd437bH3pdbIE0aatPlkk1yNYRqFBVpliWVR5+jVo60jPG8hEgrmDL2HTCBg792ZOaZEEwrZUprWD9c9ucXyaU3uoKbLl0Of7762PW9im1UTxZv2Ssfzkwxr+cnf+4wvYhOtRscO3RpmwYqG1NLvm8rtu2TBvUipEl0pD3jP61e0mqkq0a2MZUwja3XtiLBzQ+Ld5tlbUOs16R322iJjDj8Po62fg4Hdjq8t9G6lP2iRT6ewh5ddrZrb76s3J5tzwAAEDwIbgAAqEInnHCC1/AmMq6HJNfvLf/5YLbMWLRRig/st0aOhNdvYo5mFFgf4q3jjMWb5bFPFspTXy6VWWu8hyHuNKTYsHO/tGseJd3tZUja/0Q/EPdp20h62LtNaYWHfibXRse+0OBDG8rqUhVPQ3vN6HIsb7SRr1a36I5QvtIlR/U8fPhXRdZ1uQeKyl1mpgGRfrnuwuSJhiuZ+wtMw2N/aW8bDWjKej4HCopMpVNZ0vYdMI2lNTTScGzxln3m9dTKku/m7zKNiN1pldHxfZtZ73GOTFmSZsIyHVpdpUuN+vnQ6LksGtqcd3S8jO7XzLzeupzOX/pzMHd9lgkHj+nVVKIbRNjX+ObnZWmmT1OzxocHUJ1bRplwSXcjAwAg2BDcAABQxZzw5vLLL7dnDqnffqg06HGyRDbteCikOZDrCmpMWON+7rp+S/Iu+WDqSrOMKml3yUAky4QM+80HffehH2h156TCIjFbfesHXaUf/nUXqdMHHWpyO7hTE+naKlrmbdjjU9WNfhC/ZERrue6Edh7H+OPbyllHlmxA64ku4covKPJpJymHFg+FlZEiFFv/pxUa2memLBpgaVWNLpnS8Mmd9rfRapv8A3o/h/di8UaDIw0ayqJ3qcFTWfS91MeebL0uunRs/PFtzOt52XGuJVJayaRVSg4NofT51AsPk1+Xp5vePRp26Pbh2mxZq5ACoSKhjT5ODZy06bT+rOnjKe+1KW3BpiyZv3Gv6V00oOPhFUzxTRuYsFF33QIAINgQ3AAAUA00vPnXv/5VIryJbN5VGvQ4zRyLCw9IcVGB52FdJ4V6bt2mME+KC6xhHWcs2iKfzNho35uLbmGtTWQ/nbWjxNDlNZt358qlx7SWMf1cW4xr49vV27PNts7ac0WXR2l1in6e1g/5uu20Vkj4Qqt1NHDxNHpbH7a1ebA3WtnSILLsCpWqov1tNDD6et5Os2xMXwMNrGaszpA8a14DoJqg/WQaRUVI91bRpi+OVszo63l8H9euVxrquFfd6DbdM633vkVMfTl9UJzpVzR2cEtT2aI/E6WDqeo003qcKZl5cuHwVtLTruzylVYZfTVnp2larH19PP186OuhAV5mdtkVTAAA1FUENwAAVJOuXbua8ObBBx+Uzr0GSoMep0h4VIyr9KLMcMCat64vLi50jSLrg6mGPHYVzoe/rJBZq3fZtxWJaRhhmhBrhYb70F2GdFcp/UDv9I/RKpxl27JlV1a+vDBlm7z00zZ58ackc647EO3Yk28qUaqLhie6PXR1022zrxzZRhZs3CsvTXW9Bp/OSjUVM40bRpa5FMsrH77MuUnHjoeHEXpd66b1TS+Y0nTpUnSD8IMVUfo+TV64W5Izcs2yKO1Do+Ok/s3N+75smy6x8m3pW6DpEjhdjte4QYR5LA6tNvJWyaTbf2voqKGPboc+snesfU1JTgWZBm0AAAQbghsAAKqRhjePPPKI9DruAlNpI2J90Cx2+7DpfI41R/0fe+htily3LS52VeEUF+bL5u27ZMayFL2xoY2FtSLj8uPaHDZOG1iyma1WlmhYMrhLE/PBV5vbxsfUMz1ujurmWk6lDXZXJ5e/XEqXsXwxZ+dhTYmd8cFM35oTl0WrRXRZkHN/+r20ukRpg1zdMckTXYqjy4T0+ZRHK0AuPba12aZblxrpa9DJeu7H9Y6VSOv+dXlPl5b+VYko/TrdsnvLbs/hV73IMGnS0NXnpUuXw+9fv14bL3vqBaMVTg3rR8jeXNcOSxqMZGYfMDtYaVDnTrcPj42uZyqqynosVUl3CluRtM+ES857+FZisgkHtZHy+9Z7q+9xafoea0Pm3XsPyNlHxst5Q+PtawAACC0ENwAA1IAdhdaHUBPEaCjjNtzpxRLD+h+3oUuntPpGivzf5lk/6Os22Lrs5M4zOsndZ5Yc91jjjEEtzPIlb5UaBwqKzW5Qizd7HvoBXZdleaO7BWmQVJrOLbXuw7k//V76PZUuJdImwO7bmzu0MbFuf+6tt8vq5GxTfXTN6LbWa9HRPP8rjmtzcEcp3Rmqe2v/l2/pduTaYFgrTkrLsx6bNi7+7oNUe+Zw7Zo3MEvHdCew0rRnjD4/91AnPDyszOqgpnZAVFjxHcErTLcy162/Nahy3sM/12aaQGbP/kJzXvp919fsg993mObN44a3knOHlt8jSUMppUEdAADBhv+6AQBQzZJ2ZsnmHXaFgSt/8KogY7MU5Vhfc/D2Gt4UWf9fIEmpGfac76atzDA9Q7R/Slk9ZU4e0NzsfLQ2JbtEE9zShvdoaipWrj+xncdx9ei2cs5R3psTN2tczwQam0ptvX3iEc3lmjFtD96ffq8RPZua67SaJie/yDS+dbfY+uCvOzIN8rAVd2naJ+btxGTZWGrnqN/0PsO034//oY3SyicNlZxQwaHVJxrGtI5tIK8/s8WePZwuC6ofGeZxRyvtv7M/r+jgEiFd/qbBV2pm/mHfT5ss5xUUS3xMfelazf2D1BmDW8hNJ7eTW0/tePA9vOHE9ua90Qqna0a3M++xQ3vxfDZrh6Tvyzc9bUpve+6J7lilfZ497TgFAEBdR3ADAEA1m7l0q33mnQY2eRsTJW/9L9bxN3NekL7ZvtZSVHgoBPKD+aBrfdLt0aaRPXM4bYbb0vqwr5URs9eXv81yD+sDeN/2jTwObRzrS3Pits3qmwoSDV1K0/tw7k+/l0PDkdjoSNPrZUVStgktllnP7cfFu6WgsMinD/2REWFm56ZflqeZkEODI+2tslB3MWrb2CwbqwjdnrtV0waSuueAdX9Z5rFt2JEj3y3YZUKGxnvLb4IzoFMTs/Rt9958mbchy2wLrkudTG+irfus96ae6XWjdOlU91YNTVA0bWW6qUDSpXD6mny3cJdog+VRbv1lqltP6+fM/WdCey61aFLPNMXWc4c+x0nzd5kdpPQ9135N+jzchyc7MvOluLjY/LwCABBsIhJ0f1IAAFBtvv9zrcxcus2+VLai3EzJXfO95CfNlaKcdCnM2i4F6eul2JoPb9hcwqNcH9ovPmmAjBrQXv5cu8csIdKqim6tyu7JsiY5WyYv2m1ChbOPbCGxjerZ1xxu7Y79ZpvuiIgwGdW7aj/46zKfpVuzze5ATiDhjS5H0obGusPS9JUZsmTrXpmxOtP0vTl1YAs5ptT9aACyJiXbBAKOhvXCzQf+ROvrNfTRkGXJln3S3Hpdzj6qpQwq1TPmy7k7TeNgX0ICXQ6lodCMVZlmd6RZ6/bIrqwDJpRJW5oriYmuZWh/uam9JGfny86sfLO8y6FLf5o3qSc/Ldlter7MtR6/PocG1vzZR7Y01U4Obf7bzLrtrDV7zOPX56Ehj4Yd2h/mBLeqFvXlnFTTB0h3ofLHVuv+9LVyml6727xLw6J9hz0PT/TnVau+3Lei/3lZuumJo++nvnYaMOrz0OfsDN0FTXcCczdp/k4JDxc5uX+c6dUEAEAwIbgBAKCaaYXMD7PW25fKlr/1T8lPmmdfOkRDnIPhTcNYefDKkdKxVYy2OZaOcQ1McNO8cdlhTEpGvjRrVE8Gd25ijfKrSaKsD8+tYhqYD8rulS5VQR+zLlfSD/4DOjYxj9EX+tgaWh/mtdpEG/rGWfczrHvTEoGAQ6tpsq3baYWKo0WT+nJEh8amH40GJY3qR5oKIV2+o9twl/ZOYrKpFPFlW2t9bLqESdsZRUaES0zDSHOfutRr6fysg8HNP/7Tw/Qc0kDIPZTQEEJf9/R9BWYXpuj6Eeb9Pa5XrIzpVzKIibOeh1ZJ6ZbYkZFh0iAyQlrE1DMBi27DXdrb01NMtZL7a+GTYjFNk/VnR/vwuNPqIH0dw60n4q0ptOvn1fq5cvv+e3Nc72Hfdq5qr8ZRkeY5u4846zmVDia1SqddXEM560jvS/IAAKhrwoq1rhQAAFQbDW4GjX/NvlS2/cs+kwPJC+1Lh4uM6y712w+VFVNekc6tD1Ve1GXahPj/vttsKl3GDTs8bKgNXv91u5wyoLlPy7/KM3HiWklIWGfOi4vHmmN1es16HqcG4HnUtFlr98ivy9PkzCEtfeppBABAXUOPGwAAqlnn1rHSvqX3vilaUVOegrT1krvuJ5k17Qd7pu7THYiGdGlilhf5shNVTdCdjup62KGy9tf956F9g75ftEu6toomtAEABC2CGwAAasAlJ/Wzz8oW2ayzRMR2ti95VrQ/Xf7xj3/IE088IVu3+t70uDbT3jRaD7x8W7Y9U7u4b8FdGVu3em60W110SVJdtyo52yyTK91rBwCAYEJwAwBADbjilAEyvF87+5JnuhQqqvtJXsObjRs3yv333y+PPPJIUIQ3fdo1kmN7xkqP1rWzGkQfWyBs3FizFUW+NoCuzbSPzikD46q8/xIAADWJHjcAANSQxEWb5fEPZsrsFdvtGc90SVT+9nlyIGWJPVO266+/Xq666io59thj7RnUVmPGzJbExDTp2LGhbNlygj0LAABQErtKAQBQQzq3iZV2LWOkoLBI9mbnS9b+PPuaksKjm0tEk3ZydI+mUlyQK1lZWfY1h1uwYIFs27ZNunbtKh07drRnURu9+26SbN6cI4MHN5Xx49vbswAAACVRcQMAQA3bnJIp0xZtlplLt0rSTlcos33XXmnX0tVstX18jGlmPKp3E1m/fL5ZEqXhTHlOPvlkmTBhApU3tZhTcTN6dJxMmzbcngUAACiJ4AYAgFpCA5xN1jDnOzLN7lOqS5tYU53jeO211+T999+XP/74w57xTMOba665Ri655BJ7BrUJwQ0AAPAFwQ0AAHXQzz//LLra+c8//7RnPOvWrZup0DnmmGOkQ4cO9ixqA4IbAADgC3aVAgCgDtJqGg1uNJApz4YNG+Shhx6SRx991OvyKlSvbdty7DMAAICy0ZwYAIA6SqtptAFxfn6+rFixwp49XEZGhsyfP19ycnKkefPmVN7UErffvtIcR45sLued19qcAwAAlEbFDQAAdZhW3uhSqIsvvtieKdurr74qEydO9Lq8CtWrW7do+wwAAOBwBDcAANRxTh+be+65x2s1zdSpUwlvAAAA6hCCGwAAgoCGN0899ZQ8+OCDPoc3n376qT0DAACA2orgBgCAIHLjjTfKAw88ICNGjLBnPNPwRpsWf/bZZzQtrgE0JgYAAL4iuAEAIMjcdNNNZscpb+GN7jilFTqPPfYY4U0127Bhv30m0r59Q/sMAADgcAQ3AAAEoVNOOcXn8OaVV14x4c2sWbPsWVQnmhMDAIDyENwAABCknPDmoosusmfKpuGN3pbwBgAAoHYhuAEAIIhpeKM7Tl144YXSvn17e9Yzp2kx4Q0AAEDtQXADAECQ6969uzz66KOmabG38Oann34y4c3nn39uzwAAAKAmEdwAABACNLz529/+5tOOUxre6O0IbzzbskVk6VLdGcqeqICkpFz7DAAAoHwRCbqgHQAAhIShQ4eaqpv169dLUlKSPXu4jIwMWbRokRQWFkqHDh0kJibGvia0aWjz8cciy5eLREeLdO1qX+Gnr7/eIYmJ6eb8H//oLs2b1zfnAAAApVFxAwBAiDn11FNNI+Lhw4fbM55puHPXXXfJ448/Xm7IEyo2bBCZPl1EWwDt2CFSWGhfUUnduzeyzwAAAA5HcAMAQAhywptx48bZM2V76aWXTHgze/ZseyY0LV4ssmuXSJ8+Ii1a2JMAAABVjOAGAIAQpeHNY489ZsIbb02LNbzRpsWhHN506SKi7YEGDhRp1syeBAAAqGIENwAAhDBtWqzhzf333+81vJkyZUpIhzdDhogcc4yItvsJr+TfoGhODAAAfEVwAwBAiNPw5uabbzbhjbe+N05488UXX9gzqIj16/fbZwAAAOUjuAEAAIaGN740LdbwRrcL1/CGpsWV0759lH0GAADgGcENAAA4SPveTJgwQYYNG2bPeKY7Tml488QTTxDeVAI7SgEAAG8IbgAAQAmnnXaaqby54IIL7BnPNLx58cUXTXgzZ84cexb+SkoqLDEAAADcRVh/MUuwzwEAAAztezNkyBBJTk6WVatW2bOezZ0711Td9OjRw2uD42Cwbp1IerpIy5b6OtmTXsyZc8AaBfLzz/nm/Jdfsqz7KJTIyAaSmtpU/vgj2xpZUlgoMmBAA/urAAAARMKKLfY5AABACevWrTNVNV9++aVs377dnvXs9NNP92mZVV23YoXIrl0irVuL9O5tT3px3XVbJTFxn6xf71TU5FnD2VmqqTVclxMSOlqvYUczCwAAoKi4AQAAZYqLizOBTL169WTp0qWyd+9e+5rD6dIpDXcaNmwoffr0sWeDT3y8SOfOIi1a2BM+eOaZVbJwYbJ1tsce2dbQsEbHocujRze1Rpx1DgAA4EJwAwAAvNIqGg1v0tPTy6280fBm4cKFZslUkyZNJCYmxr4mtK1evU8KClxFzjExkbJ3b4E5b9cuSvr2bWy9vrFy8sktTGhDw2IAAOCOpVIAAMBnP/74o2lcrH1tyqP9brRS57777pN27drZs6Fr3bpsWb8+2zruN5dvv32FOV5+eTtrtDVhTY8eBDYAAOBwBDcAAMAvvoY36rbbbpPLL79cjj76aHsGKixssjkmJPSQCRN6mnMAAABP2A4cAAD4RStpNLg577zz7JmyPf/88z6HPKFi+3anKTEAAIB3BDcAAMBvGt488cQTJrzxthTKnwqdUKDLpgAAAHxFcAMAACpE+9hoeONLHxsNbyZOnChff/21PQOlzYkBAADKQ3ADAAAqTMMb7WOj4Y23PjY//PCD/P3vfye8ccMOUgAAwBuCGwAAUGka3uhyKG/hzbp160x48+KLL5a7rTgAAABcCG4AAEBAaN+bCRMmyNChQ+0ZzzS8ufXWW+Wpp54ivAEAAPCC4AYAAATMGWecYSpvzj33XHumbM8995wJb+bNm2fPAAAAoDSCGwAAEFAa3jz55JMmvPHWtFjDGw16Qim8SU5mO3AAAOA7ghsAABBwzo5T99xzj7Rt29ae9UybFuuOU6ES3rhvB962LbtKAQCA8kUk6D9zAQAABFhcXJwMHz5cIiIiJD09XZKTk+1rDqd9b/T6Ro0aSe/eve3Z4DR9epokJqab8xde6GeOAAAAZaHiBgAAVKk77rjDLIfy1rR48uTJcu+998qkSZNoWgwAAGAjuAEAAFXOaVrsy45TGt783//9X9CGN9u359lnAAAA3rFUCgAAVAvte6P9bvbt2ydr1qyxZw+ny6pmz54txcXFZrmVtx45dc3TT2+SzZtzzHlCQk9zBAAAKAsVNwAAoNqMHTvWbAF+9tln2zNle+aZZ0yVzvz58+2Z4EJjYgAA4AuCGwAAUK169uxpwpubbrrJazWN9r0J1vCmZ89G9hkAAEDZCG4AAEC10/Dm5Zdf9mm7cA1vdLvwb7/91p4BAAAIHQQ3AACgxtx5550mvDnqqKPsGc++//5707RYw5vythUHAAAINgQ3AACgRml4o8uhvIU3a9euPbjjFOENAAAIFQQ3AACgxmnT4gkTJsiRRx5pz3im4Y02Lf7vf/8rCxYssGfrluTkXPsMAADAO4IbAABQK5x55pmm8uass86yZ8r29NNPm9vWxfBm7dpsc2zbtoE5AgAAlIfgBgAA1Boa3uhSKA1vvDUt1r43dTW8UewqBQAAfEFwAwAAahXdcUrDm7vvvtvn8Oa7776zZwAAAIILwQ0AAKh1NLy56667zPDW90bDG92ZSo8AAADBhuAGAADUWlp1oxU1vjQt1tu+/vrrtXrHKRoTAwAAfxHcAACAWs1pWuxLeHPDDTeYxsW1NbxxGhOrNm2i7DMAAICyEdwAAIBaT8Mb3S5ctw33RrcK1y3DFy5caM/UTjQnBgAAviC4AQAAdYLuNKWhjIY3bdq0sWc90+bGWqVT28MbAAAAbwhuAABAndGrVy8T3mjTYm/hje40RXgDAADqOoIbAABQp2h4o7tIaXgzZMgQe9YzDW8mTpwokydPtmcAAADqFoIbAABQJ2l4oxU13sKbb7/91uw4peFNSkqKPVszUlLy7DMAAADfENwAAIA6S/ve+BLerFmzxoQ3uuNUTYY3a9fus890V6kG9hkAAEDZIqy/7CTY5wAAAHWOLp3SfjdZWVmybt06e/ZwaWlp8ueff0p4eLi0aNHCa4+cqjB9epokJqab8xdeOMIcgZC2Zo3Ir7+K5OWJtG1rT9qmTBHZuFEkKkokJsaeBIDQQ8UNAACo884++2xTTXPGGWfYM2V76qmnTJXOokWL7BkANSY1VeS110Q++URk0yZ70jJzpsgrr4h8/71IZqY9CQChiYobAAAQFLSK5qijjpKcnBzZsWOH7Nt3aFlSabp0SpdM9e7du1orb9wrbhISepojENI6dRJp0kREq+X27hVp1UqsX2Dd01+kQweRSy8V8bIUEgCCHRU3AAAgaOiyqTfffFPuvPNOr4GMNi3Wf7/64Ycf7JmqR3NiwIPzz9fkVWT1apEvvxR5912RggKRM88UGT7cvhEAhC6CGwAAEHTuvfdeueOOO2Tw4MH2jGca3ui24j/++GOZTYtT9+SZEQhr1mTbZwBKGD1aJCtL5LPPXD1v9Hf3xBPtKwEgtIUVW+xzAACAoOJU1XjrZ6OVOuecc44Je3bnR0txcZEs25RhXVMs63dkW39jCpPurRtZhzCJbxYtJw1o5fpCP40ZM1sSE9OkdesGkpJykj0LBDntV6MVcN262RNlePBBV6+b+HiRV18VGTTIvgIAQhvBDQAACGq+hjfqgUdflK2RR0hxcaFMmbfNNRkW5jpKuIRFREj39s3k1rE9ZUCXOOnfqal9nW+c4Gb06DiZNo0lIAgBS5ZoQyftIC5y9dX2pAfbrN83bVL81VcirVuLvPSSSJ8+9pUAENpoTgwAAIKaVtO0tj4IZmZmyvr16+3ZkiJiO0q9+D6yIDlCNmZEyPptaSKFB0SKrFFYYB2tUVxoHQslfc9++XH+dtmZlS9NG9WXrq0b2/fi3bvvJsnmzTnSuXO0jB/f3p4FglRysshbb4msXCkyYIDIkUfaV3jw4Ycis2aJ5OS4tgbPzhbp0UOkqX/hKAAEI3rcAACAoKfLoJ555hk57bTTTIjjLjwqRqJ6ni7RAy6TyBY9pfhAjmsU6DHXOlrj4PHQdT/MWicPvTNPlm1hq2LgIN0RyvH77yK5ua7wpX59e9KDDRtE5s0TiYsTuf9+kXHjXGHP1Kn2DQAgtBHcAACAkKBbf2t4o31s3MObBl1GS72WvaS4KE+KC/KluPCANaxjkXXU4Zybo16vt9MgJ0/Wbk2VJz9bLDszrQ+nPtixg12lEJyyFi+WXVOmyLZnnzVHE8boFt/aYFiDm8hI+5Ye6E5SERGu5VQa2px7rmtb8OXLRZYts28EAKGLpVIAACBktGjRQo477jgpLCyU3bt3y+7CphLd7wIptv5PPLX9O9jfxr7OHIokTJdNFVtHa2Ld9j3StmVTOapHC3OT8tx66wpzZKkUgoUT2Gx57TVJ/vBD2TZpkjSxfs+a63be1thr/V410CVTXbu6mg43LrW0cOFCkY8+EunbV+S661xzujV4vXoi8+eL6PJG/drmzV3XAUAIouIGAACEnL///e9y0233SFTvs6XY9K8pcgtu3AIc9zDH3MbV50abF5sqnII8U4Hz9k+uQMZXuqsUUNclvfOOrJ04UZZcfbWkfvON5K1eLTHWfLcxY8zvTtLWrbJOGxJrNY1l/7PPSt6UKXLAGkXOkqpNm1xbfx93nOuy47TTtJu3SMeOImVs1Q8AoYJdpQAAQEh65Zv58sCrv1p/G7In3Hn725H5GtcXhkXUk7DIhpL+zY3mcnnCwiabY0JCD5kwoac5B+oirbT5XQMXN1HW6HfqqdJ6xAiRwkJZ8t57JsAZqI2Jhw6VzClTJDcjQ3TRVL0bbpCmd9xhvg4AUD4qbgAAQEiaPGud60RDmtLDG3Mb141NT5yCXEnNzNFJICRopU1p2umpYOBAkbQ005tm4OjRMvDYY129bubNk9jrrpN9q1dLmjX2b9ni+iIAgFcENwAAICTtzMi2zyrICXiKi0x4sye7/MbDNCZGsMjbscMsjfJkyZNPSlJGhiTl5Vk/8zskRZdEtW0r0rOnpM2dK/ut2xwYOFCa3nCD6wsAAF4R3AAAgJC0dluafVYJJrwJk/hm0dKzXayZKsvq1fvsM6BuS/70U/vMJdoaDa3RyFwSWfLBB7Lkxx9lxU8/ycpp00xoI0cdJRtefVXyWreWVgkJEt27t31rAIA3BDcAACA0+bIkykc9O8bbZ75p1YrmxKi7tr76qglpNKzRuFL3U2tiDQ1w3H+tDlijwBpJGzbI9pkzzVKqphdfLC11u28AgM8IbgAAQEiKb+bUB1TeEV1b2me+6d271JbIQB1QvGOHFCxZIvVWrzZhTVNraGCjy590lK5hK7SGhjdLfvlFlr/8ssSccoq0Y4kUAPiN4AYAAISk4wZ0tM8q54iu8XLN6f3tS0Dw0bAm+733ZM/zz8vOiRNNYKOtuDWsSbbGLmvoQsAia5TepM253HTgQOnx7LPSqE8fewYA4CuCGwAAEJLOP753patu9Ovvv+JY6dkhzp4BgoOGNblTp8re996T3RMnyta//EU2PPaYbPz6a9k7cKCkWrfJsoZW1XjaUd9dg1atpGtCAqENAFQQwQ0AAAhJZx7TU84fVbkGqfr1ej9AMChculQOWGPf++9L+sSJknzHHbJeA5uvv5Z9AwZItjWir7xSOk+YIDHWua/aXnyxxNPXBgAqLKzYYp8DAACEFN1Z6ppHJ8nyTbrYw3dHdGkp/brGy92XjPC52ubTT5PlkksWmfNp04bL6NFU6aAc27eLrF8vkpkpEh0t0rGjSK9e9pWBo2GNfhjIW7JE9n/9teim9WnWUZdCFbdqJYXWaDhwoLQ77zy9ubS2jzus22x55RXZa319XqrW3xyuyYABptqm33PPSWOqbQCgwghuAABASPv+j7Xy3Z9rZdrCzbIzI9ueLZuGNvdfcZyceax/lTYTJ66VhIR15nzlyuOlTx8aFKMcH30kMnOmiIYijRq5Qpu//EWkfXv7BhVXbN1noTU0rMn9+muz21OGddSeNXoerpU1AwdKTO/eJnBxwprS9q1aZQKctMTEEgGOBjYx1tfr1zW27wMAUHEENwAAAJb/fjJLZi7dKrsysmVnpn6EdYmP1U2ORVo2a2R62px1TE+/QxvlHtwUF481R6BMr70m0q2bSFSUSHa2yJQpIkcdJXL55fYN/FewdKkUpKZKbmKi7F+1SjLdwpqIAQMkrFUriWrd2gQuZYU1nrgHOA0q8PUAgPIR3AAAANh06dSarWnm6HCWQvXqGFepJsQEN/DLkiUiAwfaFywTJ4rUry/ywAP2hG80rNG/7Odax+yvvzYhS5Y1NLCpP2CACW20X03r88+vdHWM3jfVNQAQeAQ3AAAA1YDgBpXy0EMisbEi995rT5RN+9bo1tx51tHpW7P7q69M3xoNa/TYyDq2Pf986+xQ3xoAQO1EcAMAAFAN/va35fLKK1vMOcENfKaVN1u3irz/vsiNN4qccIJ9RUkH+9a4hTVpdlhzsMnwgAHSjrAGAOocghsAAIBqMGbMbElMTJNWrRrIjh0n2bPA4YpSUyW8VSvXhc8/F/nsM5EmTURuu01k0CDXvK1g2TLJX7pU8nX5kzXSv/rKLIPS4Ca8f38T1sT06eNqMmyHNgCAuoXgBgAAoBo4wY1uA67bgQPudEemvJ07ze5MYatWSaM+fcxW2vX695eItWtdDYonTRK5/34pyMoy1TX51sj+6ivJsIbuh2aaDFu3N02GraFBDWENANR9BDcAAADVgOAGnmhgs3fZMrMjk9md6auvJMqaj7FG0z59JO7886XxxRdLg/h4kWuvFbnySkn99FNz2z3WMH1r+vc3x4NNhu0KGwBAcCC4AQAAqAYEN/Bk8wsvyJZXXjFBjKOt9rFJSpIG7drJgWnTJO6CC6T9FVeYJVMpLVvK5uefN5U4GtZEW8e21vWqDdU1ABCUCG4AAACqAcENPJnet2+J0KaeNY546CFpGxEh0qKFrH7wQWkSGSntbr5Zdm/eLKuXLpWGhDUAEFIIbgAAAKpB377TZdWqfQQ3OEiXSM0YMMCcN7RGA3ukWaP/jTdK26go145S1nF3ZqZkjhghjfr2JawBgBATbh8BAABQhTS0UfHx9c0R2PnKK9LYOmo/m+b2CLNGpDUWvfqqJDdsKMnt2klyfLykdusm3f/xD0IbAAhBVNwAAABUg7CwyeaYkNBDJkzoac4RegqXL5ci65i/bJmk/uc/sm/lSim0LuuOUNqzRkdp2ph4+LRp0rhvX3sGABBKqLgBAAAAqpCGNQeskf3xx5KRkCCp1lh/2WWyc+VKSbeuT7GGLo/yFNqoNhddRGgDACGMihsAAIJYckaeZOw7IPkFh//nPiIiTJpGR0qnFrr5cPXbuSdf8gqKpEOcb99/Q2qO7M0tkOIi6y8w4SLNoutJp5bV99h3ZeVLdl6RdK7g9yyr4mZ7ep5EhIdJ69jDl1ClWO9fm2ba9QR1TfHOnVJoDa2s2f/ll5JnzaVZR6eyJuKIIySqf3/Zb12/d/ly/RKPmli3G/LppwQ3ABDCCG4AAAhiH/y+QxZs2iO5+cUS3aBkoW14WJh0bNFAzh0a73N4EkifzUoV/UvIxSNauSbKsWlnjnwxJ1WSM/Ktx+2aa9u8gVw4rJX1HKr+sWuAMmN1puzIzJPbT+9oz/pu5848adXqF3NeOrh56adt0iKmvsfX4fPZqTKwUxPp2SbanoHfkpL0DRDJzRWJjBRp3Fg7RdtXBl7B8uWSrxU2K1fK/lWrJOOLL2S/Na9hTdgRR0hEfLz8f3v3AV91fe9//M0IOwMCshKGQJA9BMEN1aKtFSdq1Vat1bZWbe+/42p7b0na3tpx7cB16wAcoIKjrloVSxQFFBkS9t4BskNCyP7/Pt/zOxBCgIwTyEleTx7fx2+cX8bh5CTn+z7f7+fbxmvdrr9e3a+7Tqmvvqrtjz+uPO9jCu379FhYE9wGrwMANF0ENwAANGK/fW2r1u7Jd6NqhsRZGdQjtqcXKDWrSPGxrfXzyX38s6eGBTF//3CXvj6yiy4aFOOfPb5fv7rFjbYZ2L292rRq7kYQLViXpZG9I114YyFOfbGRQW8uTdOC9dnq0LqFHvvOWf4t1WfLgNty4Obxx4fqBz/orf25RdqTWaifz96ocwdEK2lKP3d7RTOS9yg9r1i3nNetXu9jozZzpvTll1JOTiC4iY2V7rlHio/3L6i7YN2aQm+b/+qrh8Maay2HDnWjbaL8ECZy0KBjRs9YnRsLcGxr7DpDYAMAMAQ3AAA0Yhbc5BSU6KvDOmnScK/DWsH6Pfmau3i/Fm7M1rP3DFGXyFOz2tGO9ENu9EzOwZIqw4rKNqYe1P0z1+uac7ro7kvi/LPSQ//Yqk37Ctx9u+m8bv7Z0NqWVqC3lqbpvZUZbtrZuQNi6hzc2FLgfYe01zvL0/Xv1RlavDFH3/S+/z/demzB4qVbczV/dZai2rY46r6jBh5+WOrePbBfVOT9py6VBg0KhDd1YGGNvYgOhjVuKpQf2LQaOtRt23vbHoQwAIA6ojgxAABN1MAe7dWva1vZWzjr91g389T4cFWmtuwrOCZIOh6rbXPhWTE6p1+0fyZgrHdcUlqu9APF/pnQ2ptdpJkfpeqjtdnKyitRh9a2SHPdFbUo1+tL9uv9lRnKO1Sqtq1auBo3VTm7b5S6x7TW4o252pdT5J9FjYwZI918c6Ddfrt01lnSZ595D/Be/4LqK129WiVey3/5ZWUlJWmf1zZ/85va8sor2vXxxzowZIgibrxRPadO1QCvnf3iiy6wIbQBANQFwQ0AAE3YoeIyxUZGqLPXTiZlR55WbDug5cdpm/dVL/yxKUItWzTT+QNPPkXKXD4yVr+4pq9G9on0zwRsSD3ogps2EfXzcmZ/bqF2ph9ytWeuH99VCT1CU2emqGW58gpLNObMSP3Su19WX6hVy+PfB6tvk19Yqk/WZftnUCMXX+zv+Lp0kbK9/8saBDcW1hx8+WVlJyZqv9e23nSTtr7yijZ7LdcPazr/8Ifq79029qWX1N3q0vgjbQAAqCumSgEA0IjZVKm9OYUa1z9aF1QKSnILSvTa52lq27q5HqhGjZv/fnmzCopL3QidqpzVo73uuqSnf1S17emH9NS8XWrdqrn++9oz/bM1syuzUHne9/7QG9sU2baFvnVBd40bcPRonFD5bGOO+9xvfJGmeSkZKvPueyimSnXp39qNsrH/s6/9frnG9YtS4gmmjf1o5nrFRkXoV7X8P4Nv3z5pxgwpM1P64x/9k1WzsMatCuW1vFdeUY7X8r3zVmS4+ZAhanbGGWrtNUIaAEB9Y8QNAACNnBXA/feqTD23IPWoNu1fO7Vmd56qnqRzrOF9IjW6b5TOPrPq1r/byUek/OvLDOUVlqpLVO3q6dj0pXeWpenp+bvdCk821au+QhsT/Nx1HdWTlnb0NCcrFG2hjanO/3/PTq21K8MWkkatpaZK//63tHu3NHmyf/JoNhWq2Gt5L7+sjMRE7br3Xm286SY3FcpG1uR7rd2NN6qvd9vQRx/VaH90DQAA9YngBgCAxq5ZM7Vo0UwRlVpcp9YqLS3Xsq0H3CiWk5ky7gzdfH6347aJQzr6Vx7frowCFZWUqXOH2gU3+3MKFdGymTp1iNCAbu1cjZjVO/P8WxuuNWsO+Hs2U6fm971rTGtlHCh2wRWq59DqQD2aMlti20bazJsneceaMEG64AL/qgp1a+bMUaZft2aTPxUq03vu5A0ZotY33KD4xEQN8FowrImsxyXFAQCoiKlSAAA0YidaVcr871vbNGfxfn3v0jjdObGHf7b+/PjZ9SouLdfks7voshHVK058PJ+sz9b/fbDLLWf+w0nxiott498Seu99maG3l6XVeqpUUtIGJSZudPvl5Ve4bdDXf79c55xkqtQ/lqTp8fd36v99o7cur+P/W2N2wIIZT563zX7lFdkC+N3uuUcRGzZIu3ZJAwdKt9yi8v37VZqWpiLvuoPedRZbZs6d61aCKuvSRSVnnKG2Q4ao55Qp9ukYVQMAOK0YcQMAQBN26fBYDejeVluqUVg4WJz4eM1Wf6qt3ZmFWlnh89u+nTsRq9ljo25yC0pdiFNTtrLVl9uPfE27fwhfGcnJ2piU5NqyG2/Ulrlztd5rEZs2SatWKWf9epWMHKmDc+Yo9/HHleZdt827bqt3jV2bM2SISidMOFxkeMzLL1O/BgDQIBDcAADQhI3sHamO7SNUVo0BuC8v3qcXPknV8wuqbrbM98kEl70usaErFSzdkquXFu49/Lls384ZW+77eEth2+pUZd7nstWlaurfqzP1ov817X7Z/Wuo7P/L7uvxlg1v6orS0rT63nuVOneua0Gdxo6V5syRIiOV+8knKp0+XQU//akOvvRSIKwZPFgHvdZ+yhT1mzpVwx591C3jTVgDAGhICG4AAGjCrMBvcUm5OkeevO7KiN4dXHHi0WdGVtls9MvJxLRvKZulbStaVWTTnCxECn4u2w9OfVqwLsut6mTfa2W5B0tcoNGvGl+7MiumbEuMu6/p3S+7f/WlcnHimso+WKzIti3Vo2Nr/wwqsrAmOE3KtPVaS691P+ccqcT7WUtJUfxXvqLWWVmKvewydb/pJrWdMkV9EhOVYHVr5sxRd+84csgQ9/EAADQkBDcAADQBxxtQY6Nksg+WaEy/KP/M8U0Z19UVIb7l/O5VtuoUJ+4V20atWjZ3hXYrGt03Ujec2/Xw57J9O2f25xTrraVpen9lhjsOWrMrX3tzilyh4nNrsbLUhMEddZP/Ne1+2f2rL6tX120a1r7sIsV693NIXGAlKhxho222P/64LLqzqM9+krt4zY6XPfaYUjt3VmqLFkrNy1NGy5bSJZdI48YdDmusAQDQkBHcAADQyGXmFWnVzjx9tDbrqLZgXbYLP0b1idTFg04euoSCjXCJattS6blHBzcncvHgGHXv2ErLth3QR2sC3/vHXpv50R5Ft2up8xJi/CsD1u/J1+Zq1OwJpeXe97Yr8+TLdddmRSmbJrY745DiYhltU1l5Wpryk5PVfPVqF9bYT4I1eySCWeWyuXO17B//0HKvpUZESDfdJH3ta/6tAAA0fAQ3AAA0YoN6tlfzZs30xdZcPftR6lFt1iepSujeTg9c1ce/uv6N6B2pqHYtlZF3/Lo1lZ3Vo73uvayXOraL0LMfB753q0tjI3e+dWH3Y1anmrcqU/9eneUfhUbX6FYudLKQqypzF+/TZxsDNXlOZMiQYz/eppgNPsFImiWbc5Tu/X+dqnAtHJSsWeNWg7Iiw4e8bSfvnIU1Vh57t9esWtGRBdgDLMjpfc89gQMAAMIIy4EDANDIfbElV4eKyvyjI1q2bKbx/Ws+xaiuXlq0T0s352rMmZG68bxu/tmTs9FBNq3LihE3b95MUW1baGj8sXVp3lqarsKSUl1fj1OfKps+f7e6RrfWFaM7+2eONnHiYiUnZ2jChFjNnz/ePxvw5fYDLtA6nhnJe7TCu+Zvtw30zzRNpWvWqCQtTcU2ymbuXGXNmeOW77awpqRLFx3wzp+odHOHwYN1cYU6OAAAhAuCGwAAcEqt3Z3vpjztzjqk39zQ3z8bOv9ake5WYfrGaJs8c2o8tyBV8bGtNXGwjf041omCmxPZnn5Icxbtc7Vtvj6q6lCoMStdu9aNlCm0ETZz5ihv9WrleM3CmhaDBrmtBTJWVHj7E0+4ejdV6eBdOyAxUT1uuME/AwBA+CC4AQAAp9zybbmas3Cfbr2ou4bEhXY1p2c/3qOYdhG6asypC25+/8ZWTT77jONOeRo69GOtXn2gRsGNTSX7x5L9OnCoVD/9Rm//bOMXDGuK/LDG1hLL8LYW0pR16aLizp3VbvDgwyFMcLth6lRlJCcrz/t4C3AsrDEW7HT3riG0AQCEK4IbAABwWtgqUba61DfPr/50qer4ICVTnSNbalSfk6+UFSpW42bK+ONPzWrW7B23rUlws2LbAW1PL1B0uwi3AlaDkZoqFRRIZ57pn6g7KzJcmp7uwpqCCmGN1a1xJZ8HDVKbwYMVPWSIOnjteCGMLQme6n2cbS2sMQQ2AIBwR3ADAABQz4LBzZQp3TVnzmi3H5Z275ZeekkqKZH+8z/9k7VXsnatStPSdCg5WQWrVytzTqBuTTCsad6li1p7jREzAICmjOAGAACgngWDm8TEAZo6NcHth509e6R//lOaNcuFKnr8cf+Gmjlct8bb5s+Zo7xVq1zdGgtsmnuf10bbRHrb7jfeqEirXzN0qH0YAABNFsENAABAPWsUwc0LL0hr10rbt0tdukh/+Yt/w8lVDGsO1615+WUX1rQcFCgy3Nbb9rzxRm+P6U0AAFREcAMAAFDPGkVw89Zb0qFDUkaGtHev3Rn/hqodrluzdu2RujUvv+xCmtLOnVXcpYvaDBqkOMIaAABOiOCmkUs7mKYu7U7dqhoAAOBo6elF6tLlA7cf1sFN0LPPStu2ybsj/omjla5b58KaIpv+tGqVMv2wxprOOsuFNa7I8NCh6uGHNgAA4PgIbhqxNWlr9MGWD/SjcT/yzxzxxZ4v1LxZc/WI7KFuHUK7mgcAADgiOTlDEycudvuPPjpEP/xhH7ff0OWtWxfYWbtWrbp0UcuzzlLzzp2rDG4srClJT1dxWpryX35Z2V7L984Hwxp5H9fGigzfeCNhDQAANURw04g9tOAhzVo5S+/e+q7io+P9swFXv3S14iLjdNvI2zS251j/LAAACLWKwY0tBW5LgjdkFtjkrV2rPS+/HDjhbWOGDlX0jTeq3YQJart5swtuSr3jYN0aC2vyVq9WzqpVbkWoFmed5UKbDsEiw0OGUGQYAIBaIrhpxF5a9ZJ+/dGvde/Ye3XPOff4Z6Xt2dt1/Zzrde3ga/XgBQ/6ZwEAQH0Ip+Am85NPtO2xx5RqS35X0MZrkV6LHTpU/X76UxfcpK9b5+rWpHvXWkhjI3JslE1bbxt3003enhhdAwBACDT3t2iEhnQZov6d+mvl/pXan7/fPyu9suYVtY1oq17RvfwzAAAA0qof/OCY0MbYKJo0r+1ftcodmy3edTvmzVOOTaG6+mr1SEzUAK+d8/rrLrAhtAEAIDQIbhqxYV2HaXT30dqWtU0Ldy5059Ly07Ri7woX2liwAwAAYGyK1IEKwYyNsmkf2D3MRtQEFV1wgTp9//vqT1gDAEC9Irhp5C7pe4kKSwu1O3e3G3WzeNdirUtf50Kbkd1G+lcBAID6YqtKhQObIhUMazp4zSZ0dfRaRTY1at+yZSrq3FkjnnhCA3/zG8IaAADqGcFNI3dh7wvdylGpeamav3W+tmZvVU5hjs7vdb5/BQAAqE+rVx/w92xxpVb+XsNRun69SrxWnJyszt5xJ69Fe82mR2V6rbKVs2er8OKLKTYMAMApQnDTBIzqNspNkVq0a5G2Zm11Qc5FvS/ybwUAAKfK0KFW4vf0C4Y1B994Q9mJidrvtRb+ilAW1uzxWrrXDnqtsm7XXUdoAwDAKURw0wTYqBubLrUidYV25u50dW8AAEDTUp6e7sKaAj+sSfPalquvdkWGN3kte+BA7fOuszo2tuRoM/ugSlp17qw+997rHwEAgFOB4KYJGBc3Tu0i2rnpUmkH0zSp3yT/FgAA0NjZ6JqCN9/UgSefVHpSkrZdfbW2vfSSNnsta+BAFZ13ntpNnuyKDHf29lvFHrtceXvvOmu97r6b0TYAAJxizco9/j4asd9+/Fv9Y90/1KVdF71767v+WQAAUJUdO6Q9e6RDh6QzzpAGD/ZvqIX77lutRx/d5vbLy6+QvvhCOnBAatdO6tFDio93t4WShTWlGRkqTk9XvgU0L77opj1Zaz5woCsy3MHb9vjmNxU5ZIgihw2zD9OBlBTt8a7PSE5WkffxJnid6XHTTW4LAABOHYKbJuLRzx/Vh1s/VHxkvKZ9fZp/FgAAVGaBzVtvSQsXSnl5UkKC9IMfSL16+RfU0MSJi5WcnKHY2FZKX9RHeughKTNTio6Wxo+XrrlG6tbNv7r2LKyxF3VFVrvmpZeUl5KinFWrXFjTYuBAt23nbeOqEcJYgHNg9Wq3T1gDAMDpRXDTREydP9WtKHX1WVfr2kHX+mcBAEBlM2dKWVmBwKZDB+mzz6TWrSXLO2z0TU0Fg5sHvxul33V7X+rUSRo5MvBFVq2SevaU7rzTv7pmyjZsUJm3Lbaw5sUX3UiaDG9b4G1LY2NV7LVWAwcq3g9revpbAAAQPghuGrnNWZt1sOignlz6pDq17aSkiUn+LQAAoCpJ3p/K7t2lu+8OHH/8sfT669LFF0tXXx04VxPB4Kb8be/gtdcCw3fGjAnc+PvfS9u3S088ETiuhvKMjMA0qPXrdahSWGOtPCFBrQcOVMzQoeowbBhhDQAAYY7ixI3c7JWzNe2zaYptG6uv9vuqfxYAABxPYWFgpE3QRRdJBQWBATJ1ctBfXDsY2hibLrV/v39wYqUbNqhw0SJXZDgjMVHbJ0/W1hdf1GavZSUk6NC556rtlVeqn3fbuDff1MDf/Y7QBgCARoDgppHr2qGrEmITNPHMibqg1wX+WQAAcDxlZVKrVv6Br7n3iqmoyD+oLfsE9okqsjlY9gWPw8KaEq/lv/WWC2v2fO972vKLX7iwJichwbXWV16pvt5tI/7+d415803CGgDwbUjbEGj7NigjL1BwHeFt0dZFemvVW3or5S0t2rioyTyuTJXCMeyHP7bDsUuBAgDQFDzwQGBQzPXX+yc899wjjRghfe97/okaGD78Y6WkHFD5C9lScrL01FP+LZ7p0wOVkG0uls/CGldk2Nserlsze3agyHBCgtu28bZxN9/s7VG35nSwjqBTJsW2j+V1UyOwYb/XufeaUyydO+BcHtcwZ2FN0r/8MhHeL9Kh3Ybq7q/czeMaxjbs3aDrn7peKakp7nk6LHaY7p10r3tcGzuCGyjjYIYy8gNJpT0ZUram6Lqx1ymhe4I7B6BhsuduUGw7XoQ0BtYZDD6usW1ildCV38Onw4MPSqNGSTfc4J/wWFkaOxese1Nd1hEcM/Att5/7eA/pww9V9oc/qHms/5x9+mnpn/9U+VNPBerW+GGNDe6xsMZq1pR41xZ5rXVCguIJa047e810/yv3Bw78ziCvm8KbvWl5/0v3a/bS2XKp6QHpdzf+Tg9O9n4ZICy5x3SW95h+7j2mxn6plkmv/PgV93xFeLr/+fv1yLxHAgelXvOer8Pih2nl71cGzjViBDdNkL3gOBzUeC8oLbFctWeV+8GfvdD75ea9Srz5vJs19bqpSjiDFyGNgXUEg+8O0hlsHOw5/OSiJwMHJdKEfhPcu4MIX+5FptcZTNmb4l5c2rtIUyd7v4fpDJ5y//VfgRWlvv3twLGVoElMlM71nmLf+lbg3Mnkb9ig1O0bNHX7i1r44kL3N3brvQ9L77yj9P79FXXddWplX+QR7wXop58qd8QIHVy1Spn+yJpDXrMiw3ZNzLBhFBluQB56+yH94vVfBA78zmDitYnudRPC05Pzn9T3ZvrD6fzOoCmfRTcpXCWvTdbE30wMHDQLbAzP1YYlo6Bm05wmJk1Uyk7vdVJQi8Am/e/pgZ2TCcFT+nS9WUpw0wRYBy8zP9Pt25DBlD0prrmgxlJo+wmw6fXWir3W2muem8ffrPsuvk/j+48PnEBYssf/qU+f0uxl3mPtdwYTr0rUgG4D/CsQjn7/7u/14JsPBp6/Xi9vWI9hmv9f8xn+G8aeSn5Kdz/nD+ewjkOJdN+k+zTttmmBczhlfvc7KSZGmjJF6tJFevFFafly6ZprAuHNyRRlZGj1/fdrxpLZeiR4vfeY7huQqDN279bWhQsVMWKE4v70p8BUqawsLfvzn93oGg0YoHIbXeO1HjffrJ7+CBs0DBawdr67s3/k8TuEPFdPvZp2+E7keJ3BDQ9vUKcOnQIHoVSL3ldmgfda/lT32k7116sk+EbzUd9HNb+n5DXJevDFCiOm7LnqNXuu3nx+DX6vnsL/A/v9UqVG/LinpAX6pBXDtSr539ODz1UaBefXo3vopocCOydTx/s2fsB492bp6UBw0wgdDmq8R9aNqNmdopRdgT9Gsz8LdN5ds0c+2ILH9oeqnddModcZ7DpMr/74VTr5YayqzqCNqJr1w1mBcwg7ruNwj99xCD53PfZcvXbstYEDhJ3hDwxXyg6/4+C/gGkqw39Ppep09qzkTPqOWLXz/h4OHhw4HuD9GZxyW/U6ivkvvKaUu+/Wg5d4L0q7+ic9b3t/gsdeeaXOGDlSm//8Z/WzYjp5edoRFaElTzyh9t4X6XHLzYoaOkyRw4f5H1WB/1yvqcyDgTdvTplafp+h5Dp8lb+PEHxf9hy9+6kK8+X8zqA9V5/8rj8KMugU/j9U2eE71Y/DKf56KfuP/n15XNX4vo7XGbTXS8N6+c/FUN6/WnyulH3V7OBWR3W/fnWuq8f/F1fHxM7Z69egan69lG3ex1b8OOvjNPeeq8HH05zm+1eZ66/ZNZWvC9X3UN3Pczq+XnWXTKr882+vg+uqBvd3/tT5mjCI4AZ1sHHfRrd1NWosqPGa/SAfDmrsUbZWcd9U/uG3Y2sVrmFIYXirqjNoGP5bM6F8Z6+uXlv8mu5+ulKhDe8FiT1X773sXv9EBbV4qE/LO3vmNP9Y1ldn76S8r3HuryoM5Qj+LvYsSlwU2KkHvLt3HN7tWxYNU/nuK9w0qb3N39FVV3mvK7v7v0tPILJQKvyvrcpNSdEnFy7SsphIZVknMGOopiYHrhk7ZoSuiNsrtWmjd84o1XtZ69zXtNDmhGr5/+Sm353o/tZEdb6H6n6ftbw/x6ji87iRxRU7bSYUX8/7nK5DGGSdDesQep/7qA6hqcf7V5nr8FXuwITq65vqfK7T9fWq2+ELqupzV/4c1e0Mnur7bFr6W9RaUxudXC+jxk6DzLzMKl+32ONZ+T7W12NsAb0F9acDwU2YCgY1G/d6W+8RdAGNt521aFbgF//JAprq8l6M2JDCqddWP7hxHb7qCH5vp0o9fr3gCKcaOwX/B+P/u9JUN/9nYfGvFwd2KqvG91Rl5zaUTsH/y1Gq8fVcZ6+2QnV//M8zK3nW0UO67bzXMbzl/Ftq9sfkBN/X4Xf2zIleFFf3vlX3uuqozueq5TUr96w8trNXHXX9nqwzuL1SZ9D/f6/TC4STfF/1/u6eqc7nOh1frxqdvd9d9o4KC6Wk5CsCJ6rxua/YLK1d8rx6a4+u7fOfWqE+mntGD+V+/hv/ClOg5f+zTnu6FeiK9//bP1dL1f2/o7NXZ9YxsI7D8TSWzpFpSh1b6whW9bja49nYR5w35sd58abFVT6u4/qPO20jJk6X4fHD/b3w9uqSV/Xaktf8oyNstHnlgtNDew3190LrdP5fEtyECRfQVNjOXjTbbWd96gc1wUcxVO+oGfucXmfQOg3WITx87iRch68630d1fvKqc011hfLrVbquXjt7pg7fu60SdhT/xftxO4PV+FpVvrNnqnt/TiaU/y/VUZOvV43O3jFC/X3au7sV1eZnz1T3+6LDVyfV7cwdr0MYbp3BpvZOZlB0aoYiUzP1/RXSruwJ+pqSXc0aKzT8w5jvaWX2le66SB1wbULMTG2+v7ZP3tOvKT7O9nfTOg3B12IVNbbOYGPp6FWHFbF9an6FJfp99nj+7ba/+UeNU2N+nCf+dqJ7bCv78vdfNqmf78bkkfce0f3P+Sv6VTDt29N032X3+UeNF8FNGLB3ApJeS3KdLPuBdUIZ0BxPVa8n6eidUqHosIVTZ7ApdgRq8zh8tukzf+9o9s5gQ+/kN9XO3slYR7Cqd5HsMQ23ukVN6QVx6caNKs3MUHFGps5csFJxC1JcUGOBTb7XtkZKqV6bqduVUdhHAzOkPtrmWqtOnXTjivCdhtxUOz5JryYp8bVE/+gIKw7f1N7FbyxW7lypEQ+M8I+OuGviXcfWLULYuO6v1x3zd9X+plrBaYQne65aIFexb2OPqS3x3hT+JhHchAH7IZ39aWCEjU2PsCAn+G7P8TrlodRQOoN0+GrOfj6qehfJHk97QdLQNMWOQG2Gclb+oxU0655Z9TY0NFR4l6tqx+sMNpV3kcKJhTX2wqnI2x6cPVt5K1cqJyXFhTXNBwxwwY3J927/+9nSWwMDx8P2SQ99GNi3IsSxEyZo2JN0CsNNVc/VptRxaKwSfpJw1EgqHtPwZ30ne64Ga6JYP8JqAdZoRSk0OA+89MBRI6nun3R/k3lMCW7CkAU5sz4JrAgUDHI27dvkjusjyLGOw8WDL/aPTh/+eNac/WKzTn5l3534XT313WMDHYSHqob/9u/aXxv/fOzwfYSHqob/WsBq7+Lzu6+GMrwX6UVFUvfu/om6K920yYU1xRs3qmDWLFt0Uene1sKa0k6dVOS1NgMGKO4Wf1qxZ9u0afpl901a1jLwd3nYfuknmzopbuQ49fSuixw2TFHDeWzDjU1RT3w1MVDbztOpfSclXpd4ZEo5wpI9rtPeO7Kc+/2X3c9j2gjY47pyR2BlxuG9hvOYNhLWFw5qSq+RCG4agfoMcug4hDf72ag8/JfHNPzd9fRdenr+0/5R4DG1gJUXJOHLnqt3PXXX4d/d1hm0KVJ/+OYf3DGqKS1NevttuYrC3/++f7J2yjMzVeY1G1ljYU2Rdy7DD2uslffvr1YDBihmmC3dPdyFMRXlrlyp2Qtn6bUPF2vvpr2KzY7UXddfpJv/9Gf/CoQrOoONU1PtDAIIDwQ3jVAog5yff+PndBzC3LhfjTv8+BvrDDLaJrzZc/yBFx84PPzX6irwPA1/FX930xmshfR06f33peeekxISpGlH3j2vCRtdYyNrilNSdHDlSmXNmnW4bk1p//5q3qmTWsXGuqCmclhTlaSkDZqZ+IGrbDN//nhNmNA0izcDAIDaI7hpAip2BuwdIhvee7Ig55x+57h3fN/9z3f9MwhXFR9/c8sFt/BOUiNhj63h8USTZyNtPvxQWrbMe2J4z4saBjfBqVBF3jZ/1ixlvfCCC2qswLD693dTo9p725633lrjKU4W3CQmBqYxfvnlhRo+PMrtAwAAVBfBTRN0siDHQpun7nqKziAAIDwsWSKtWhWobVNaKu3bZ4mJf2PVDtet8cMamwqV/sILbnRN8/793baNt42/9VZvT9UaXVOVisFNefkVbgsAAFATBDc4Jsj5w81/ILQBAISn6dOlHTukxGNX6SqrMLImWGQ4ww9rgkWGI/r3V+86hjUVEdwAAIC6IrgBAADhY9euQPHhli2lDh2k2Eo1Y2bMkLZvPxzcuCLDWVluZE3BCy+4kTWZflhjraxfP7Xu318xw4cHigz7oU2o/OhHqzVt2ja3T3ADAABqg+AGAACEB6tl8/zz0u7dUlSUNGaMdEWlMMQPbkq/9S2VZmaqMDlZBVZk2A9rrHaNhTXlnTqptdcsqAl1WFPRxImLlZwcKCROcAMAAGqD4AYAADRo+Zs36+CmTdJnn6nF0qVqlZqqiF69FHH99Wp+003+VVKpd12Ljz92wU26t39g5Uq3LLcFNs379XPbw0WGhw+vUZHh2goGN506RSgjY5J/FgAAoPoIbgAAQIMUDGx2v/CCa6aN12K8Fj18uDrdeqtirr1WZd6xTYU66F0T+5WvuODmcytO7Ic1RxUZrsfRNVUJBje2DLgtBw4AAFBTBDcAAKBBWvHtb2u3TY2qQmuvdfZa/Le+pWJvm+FdZyHNWCtOvH27Fi1a5G4zcac4rKmI4AYAgNMnLT9NXdp38Y/CV3N/CwAA0GAUZ2YeE9q09LfGVoTK9tpW75pNXsvo108lkyZJPXtKHTvq3Pfec4HN6QxtAAAN2/78/dqStcW1vXl7/bNoLDILMjVn9Rztzt3tnwlfBDcAAKDB2fv6625rI2vaea291yLtRAW2QpSFN1ak+MzERBfWyMKbCRPsbIOQmWnjgY6VfjDd30NjtjV7q9alr/OPEM72HNijDRkbXLNOPs/h8Jd2ME3vbHhHj37+qGtzV89Val6qfysag39t+pdeXPWi3tn4jn8mfBHcAEAjsSlzkxbvWqyFOxfq892fu2MgHJVu2aI9jzziwhob3GxTojp5rfKLFheJdOyo4U8/ffTImhEj/J3Tb+XKXH8vwN79s+fn818+77Zbs7b6t6Cxsd/BDy98WH9b/Df/DMKVTbWwTn2wg//Y54/p/c3v+7ciXC3YtkAbMzeqTcs2rq3Yu0JvrHuDUK6RsBDu3Y3vuudvSWmJfzZ8EdwATZC9a7Rk9xIt2L5AX+z5Qjtydvi3IFzZH6Unlz6phz55SL/9+LdKSk7S37/4u3usEf6ss2+dwPUZ6/0zjU/Zli0q8VrBBx8oOzFRLb780gU2NiUq02u7vJbmtcrOuOYaRTWgoOZ4OnaMcI+jvfv3m49+o6V7luoPn/xBM1bM0Pac7f5VaAzscbYRGf/3xf/p4+0f61DJIf8WhKsFOxZoZ+5OdevQzbXsQ9nuOUzwGt5aR7TW+b3O1+8u+Z1r/Tv11+bMzfpkxyf+FQhX9rr4jbVvqHmz5jqj/RkumAt3LRI9/j5wQlkFWa7T0LpFa7WNaOufRTiauWKmZqXMch2IpalL3fzeQZ0HqX0re38b4Shlf4oL4K456xpd2OtCxUXHuc6gBTfnxp/rX4VwZJ3Atze8ree+fM49zpf3v9y/JfyVZ2WpLDVVRV98obxp03QgOVl7fvYzpa9cqQLvdnvP08arBN8na+ZvgyI6dtTQJ55Q627d/DMNT1LSRre96abuatl3rV5f+7ou7H2h/vDVPyi6TbTWpK3R2vS1mtCn4UzvQt3YayUblm+vm7q276pWLVrpGwnf8G9FOLJ37ntH99Ydo+5wz1977trz9st9X+rSMy/1r0K4SYhNcC3I3iDJOpSlmDYxGt51uH8W4cheN61JX6OJfSdq9f7VGnrGUI3qPsq/NTwx4gbV9sGWD/Sz93+m5XuX+2cQrmwI6J2j7tSvLv6VpgyZ4t5Fem/ze/6tCEfj48ZrUr9Juqz/ZfrKmV/R7SNvV+e2nd3UKYSv1AOpbjj+e5ve08p9K/2z4c+mQh2aN09506crIylJ2yZNOlJk+MwzlX/22Wp16aVq4+238D+msnbebfHf+U5YjLYJyjmUo/zi/MNhqoVw1kFYtW+VO0bjMLLbSNesQz8gdoBaNq9YVhvh6Ct9v6LLBxwJzS1obduybaMoeIoAGyVn9ajKvX99O/b1zyIc7cvb5/o63Tt015TBU9S6pVXLC38EN6gWe9f+g80fuE5EUamVg0Q4sxeTXxvwNV3c52LdOORGdWjVQWvT1vq3IlxVHlljw0Lzi/L9I4QjG2GzPn29W8Yy3EdOWVhTtHSpDs6bp8ykJO346le1+ac/1ebnnnNhTbbXIi691BUZHvnMMxr3wQca4O1Hn322G1kTZIFNZ+86u23Q//6vfzY8WGjT3Ps3pscY/4wU1TpK2YWuxDIaEfs7e+XAKxXRPELNmlUeK4ZwZyNai8uK1Tumt38G4cA68xkFGf7REXbuiSVPuBGQNvr8/Pjz/VvQkNlURXuDcv62+a6+o9UrMlZwunnz5rqo90XuuJn3r6y8zO2HM4IbnJRVXLdCXTZc3zr4NlcQ4c2G+QbZ0of2y6xF8+O9r41wtD17u3shYuEcwpeNorJmIzOsrkK927ZNWrJEWrRI+uILafNm/4basbo1FtgUzJun7KQkpd55pzZ99ava8txzyjrzTNeaX3qpeicmKsFrFtbEfetbh0fR2P7wZ55xI2ssrAkGNsHrGrqsrKNXlLI3Pip34iNaRKi8vNw/Qjix6anLUpdp0c5Fbmu/dxH+7PWuvWNvrSr2ZuYLX77g3sW3389o+GxklD1HZy6fqdkrZ7uVwSralrXNBTaju49WaWkpK8GFiU93fqrpy6frLwv/oqeWPqXkrcmuX2OzQ3Zk71BhaaG7xgK7TVmb3KiqcNbMe7HAqwWc0AsrX3BzPnMLc91Q/QcueID5vI2EvbPw6ppXtWLfCje15sqEK/1bEM5s+Vl7UWkvPv9y+V/8swh3v//k9+4FyV8v/6t/JsSysqTHHpOWLZMKCqQ2baTBg6X77pNqUEOmbOtW2QuL4i1bdPC559yS3Rne9qC3LenYUYUxMWp95pmK//a37XLF+dvGKDk5QxMnBqYr/vWvg9Xugnmat2WeXp7ysjtnbIUaq3vz4W0f+mcQLl5d+6reXv+2e15a8csrBlyhG4be4N8a8JdFf3G/k6d9bZp/Bg2ZFTS1+n82hdzepb9u8HVH1UCxDuAzy55xb4ycF3+erj7rav8WNGQ2AiN5e/LhgGZc3Dj9YMwP/FuPdt8/71NJWYme+MYT/hmEk39v/bdmLA8U/beR54UlhS6I6xPTR98c9k39ePyP/SvDD0MncEL2YsSqq0e2itTZPc72z6KxcH/ItiW7X2xWSR/hz97xnb5sug6VHtIVCVf4Z4Fq2L5datVKuvtu6ac/laZMkUpKvN7pq/4Fx2dFhku3btWhDz9UTmKi0r225dJLtfW557TJa+l9+6r4kksUc8cd6u/ddu68eS6wacyhTWUjRkS5kY1WP6Gi0vJSptKEqesGXae7Rt+ln573U9199t3HhDYIP1ZY2kZS2dZGZVjQGmSjNp5d8azrBI7tMZbQJozY66E/ffVPmnvDXM28eubh0Mb6ObZAR5C94cX0xvBm9ajuHXevpl481f1uvn/c/S58tfqPwalT4YrgBif05vo31T2yuy7ofYHOaHeGfxaNxc/O/5kevPBBjek+Rr+a/yv3ThLCl73YfOKLJ9x0RvvjxMg41MjIkd4rnq9Il18uXXKJdPPN0hne7/3Fxy9wbWFN0bJlypsxQxmJidp+6aXaViGsyR89WhHe5+rn3XbevHka9PDDTSqsqax9RHs3NbViRyGvME/tItr5Rwg35/U6T5eceYlbUhjh74JeF+iXF/1Sz179rGZcPUP3jL3Hnbcaj7Yapy3kYCOUbWEHhL95m+e5vo5NobF6KTbaypYvPDPmTP8KhKNxPce538s2ldFGzdlom6FdhrqpcOGM4AbHZXN7l6cud53Ajm06ak/eHhUUF7h02hJpNA7WubdwbkP6Bn226zP/LMKNzbl/7PPHlH0o2z2ml/W7zL8FqIExR4rmOm3bSvlHF7i2sKbEawUffqisxETt+c53tOUnP3FFhi2syfJay0suCRQZnj5d4/zRNZDio+JdSBOcXmOdBVsyuuJUDDQu9s49tQHD39zVc13xU1vWvUdkD1dCwJ6/9jxG+OrSoYt7HKd9Ns1NW7UaKT0je7olpNF42CgcW+Ev3LVI9Pj7wFH+ufGfmr91vgtsrKDX0j1LtS5jnSv0ZCucMLUmPNn8bZtvb0NB20Z4nTKPVWS3SuxXnXWV4qLi3DmEFyvONjtltnt3wVa52JW7y71DaEGO1V5A+PtkxyfKK8pzhYpPid27pU8/lRISVNa1q8qys1W4fLkOTJumAx99pF0/+Yn2f/mlDrZrp9yOHdVi9Gj1/vGPFTthggY//LArMNy6BrVxGqNt2wr07LO73P7tt8fpwhEDXW2Mz3d/7jp+ttS7sceUv6mNk3XsbdnoiiuJIfy8svYVrdi7wtU+sTc1l+xZ4uo+2huZo7qP8q9CuLHfu1mHspRxMMMt298zqqcbPXdO3Dn+FWgM7Dlqj224ozgxjstWSVi0a5EbZWNz8K2zv2D7Ak06c5JuHXGrK8qG8PPx9o/dHG0rzDakyxC3XJ4VKO7UppN+cdEv/KsQbh5b8pieXvq0YtrGqFXzVu5dXuss9O3YV3++7M/+VQhnDy98WHvz97p5+nVxcOtWtYuIkHJyAiciI6VevQL7QTt3ej2VV6R9+3Ro0iQVPPecCr3TGc8+GygyHBOjwo4dFdG3r3rfdpv7EEbVHOsf/9ira65Z6vbnzx+vCRNi3f7P3v+ZUvNSXX0x+1v6nVHfcecBNEz2OqnySkP2/O0b01fXDr7WPwMA9YfgBtVmBdpsVRNWlQp/NuT3lTWvaP/B/YffCfz1xF/7tyJcfbj16FVpWjRrQWHxRuTtDW8r51CObhl+i3+m+iysMQXedudzz2nk+PHSZ/7UyFGjpPvvD+ybXbukWbOkwkIdKCnRrt/8RgXeaQtsSvv2dWFNzIgRiho5krDmJJKSNigxcaPbX778Qo0cGeX2AQAAaoLgBtW2NHWpXkx50S2ldnZ3OoLhzqa/2RJ5tsrJOT0ZEgo0VsXZ2Vrz48Dyl7uefdZtx//iF9KmTW6/ZZ8+avPNb1o9RrWyYsTTp0stWijjwAGtf+ghlXm3l8XEqFXHjoq77TbXUD0Vg5vyclZ5AwAAtUNwAwBAI7Zr5kx9eccd/tGxIr3Wc+RIxQ4ZopiEBCkrSwdHj9biX/1K7fr2dUGN1auxETaoGYIbAAAQCpS5BwCgkbLRNlv/9jf/SGrttVZea+GOAmwa1L4VKxRz6aXSa6+5ejeZixYp4Wtf0/g//lFx55xDaAMAAHAaEdwAANBIZSQn6+CKFS6sae+1rl7r5DU7Dirxmi34XZyZaWsXW0VdxW3cqLjNm6X/+R9pxgx3HWouO7vY3wMAAKg9pkoBANAIlW7bpq1JScqYOVMR3rEFNxbQ2AgbW0+q8h//C5cvV1RGhn/ka9kysOrU6NH+CdTExImLlZycoZiYCGVlTfLPAgAA1AzBDQAAjYSFNWXZ2SrxWv6zzypz5szDK0Llec2W9LYixJVFxMRoUlaWf4RQCQY3tgy4LQcOAABQG0yVAgAgjFlYU+K1guRkZSclac8dd2jjxInaNHOmMvv00b6YGGV61xV5rarQxnS9+mp/DwAAAA0NwQ0AAGGmbPt2lXrt0EcfKScpSele2zJxorbMnKnd27Ypo3dvlV58sXpOnaquV13lRtRUpa13XSfvur4/+pF/BgAAAA0NU6UAAAg1K/Sbni6Vlkpt20p9+vg31F55drbKcnLc6JqDM2e6ETRWvyY4Faq0d2+19L5Op5EjFem1+Ntvtw9T7ooVbklwK1Rsq0wFtfWujfOuCV6H0GOqFAAACAWCGwAAQm3uXOnDD6WCAik+Xvre9wLbWrCRNRbWFK9Y4VaIypo50wU1FtgU9+4txcSolddOFsJYgJPjtSACm/o3atQCrViRS3ADAADqhOAGAIBQ++MfpfbtpbKywMibVq2kO++UunXzLzgxNxXKRtdYkeGZM5U5Y8ZRI2usyHA7bxt3xx2KHjFCUaNG2YehgWnW7B23JbgBAAB1QXADAECovfmmNHlyYH/hQulf/5J69JC+//3AuSpYWGN/kIu9rU2Fylu+3I2QsbBGvXu7pbytJo2FNYYRMw1fMLi56qqu+sc/xrh9AACAmiK4AQCgPmVkSM88I7VoIf3kJ/7JgIphTcFMv27NjBkurCmKjlZhTIxa9u6tPoQ1YSkY3CQmDtDUqQluHwAAoKYIbgAAqC/bt0vvvitt2CBNmiRdfrnKc3ICRYYtrJkx43BYE5wKVdKrlyJ691bMqFGKsiLDfmiD8ENwAwAAQoHgBgCA2rLVow66yUyB1aNiYwP7Qb/5jbRqVWCa1IMPqnjvXhUmJ6vAigzPmOGmP7kiw716BYoMR0e7qVCENeEvJ6fYe0jfd/sENwAAoC4IbgAAqKGCHTtUtH27onftklJSAieHDpVuvjmw7yv7619VvnevWkRHSxER2j57tnKWL3eBjXr1ciNsDhcZHjmSIsONiC0DbsuBG4IbAABQF839LQAAOAELa6xlLligDYmJWnrRRcr84APlvPee8r1WvH69u67Mu6bUa4e867JXrlTa/v1S9+6Sd+3ejAxl9OqlsgsvVJz3ORK8du7HH7sRNoQ2jVd0dIS/BwAAUHOMuAEAoBq+tOW8PbumT3fboDZei/Jaz+98R7E2xWnxYpXm5WlbUpKbBmVFhs+dNk165RXtvOYa+xCmQjUBFUfc2FLgtiQ4AABAbTDiBgCAkyjJyXGBTeXQxhzy2n6v7fFu23bhhcovKVG78nId6NJFBZ07K2rcOCk1VRoyxAU2hDYAAACoCYIbAABOYu8bb/h7Uiuv2Sib1u7oiByvpXotZfZsqW9fjbvySl3w9a9rSHy8VFQk3XCDuw4AAACoCYIbAABOwEbb7PnrX11g09ZrZ/gtxmsVFXutLDpaI599Vrr9dum88yQbbXPhhdLFF0vUsGlScnJK/D0AAIC6IbgBAKAKZTt3qtRrmc8/rzbLl6ujd66r14q8luk1mx5VUanXYidPVnQwoLGaOPfcI912m3TRRYFzaDJWrLAxWAAAAHVHcAMAgK88J8eFNYWffqrcxERlWLvvPjeaxmrZ7PCaTYfKs2u9VlHL6Gj1+Y//8I+AI6KjW/p7AAAANUdwAwBo8mx0TeHChcp/4QVlJiVp+wUXaNv06drotX3x8codMsTVsCnzWgv3EcfqWnG0DVDBqFHR/h4AAEDNsRw4AKBJclOhcnNVmpOj/OnTlfnMM2757oNeK4mPV6G3bett4++8U1EjR+rLb39bBd7HlHgfE9QyKsqNtLHrhjzyiKJHj/ZvQVOXlLRBiYkb3X55+RVuCwAAUBsENwCAhm/LFqlNG6lHD/9E7VhYY3/0ir3twenTlb9smXKWL3dhTVl8vPK9bTCsMfHf+Y7bmhzvWlsO3K63gsUmdsIERY0efdR1gPl//2+N/vKXrW6f4AYAANQFwQ0AoGHbuVP65S+lYcOkn/3MP1l9wbCmxNsWTJ/uRtKk+6NriqKiVBgdrYj4ePWuIqw5HgtxDCNscDwTJy5WcnKG2ye4AQAAdUFwAwBouGxkyx//KC1YIE2aJP3Xf/k3nFh5bq7KvObCmmeecStBZVScChUXpxbx8eo4erSiRo1SLz+0AUIlGNxERbX0fowv888CAADUHMENAKDheu016dNPA1OlJk6U7r/fv6FqZbt2ubCmeNkyFSxf7urWWFBjrSguzpb3UauoKMXdeSdhDepVMLiZMCFW8+eP988CAADUHMENAKBhysiQ/vd/pfFep/edd6Thw6V77/VvPMLCGiswbIWG8595Rln+yBqrV2Mja2wZ73bx8S6ssVWfmN6EU4HgBgAAhArLgQMATj+/2O9RPvhA6tRJuuoqKTLSPxngwhqvFS5erJykJO399re16bzztPmZZ5QeF6c0rxWPH69eiYlK8Np5Cxe6ETaENgAAAAg3jLgBAJw+6emBNn9+YGRNbKybzqTCQun116VRo6RzzpF+/nMpLk6l116rkl27DtetSX/6aTe6ptCKDHutuXdN3+9+131qpkLhdDr77E+0bFkOI24AAECdEdwAAE65Q7t2BbbPPKPm776riNWr1bJ7d7W44w41HztWWrFCSk2Vbr3VXaeHH5a82wvatNGO3/72qLo1Lb3migx7jbAGDUWzZu+4LcENAACoK4IbAMApU5Kbq7y1a7Xj6afd8U5v29bbdvJazOjR6vjd76pd165q8dZbar5qldSunVRaGlgS3EbjXHGFPp4xQ6VRUa7IcLx3fS9/hA3QkASDm8mTu+qNN8a4fQAAgNoguAEAnDK7Z83SiuAomkpae62r1zp997tq421b9e2rUu9PVHlBgTpu3ix16yZNmaIda9a4WjXUq0FDFgxuEhMHaOrUBLcPAABQGwQ3AIBTwkbbLJ44UTnLlvlnpBZeKw3sOu28ZqNvrH5NWc+ebmWoiLg4XXj55VKPHtLdd3tngIaP4AYAAIQKq0oBAE6JfW+95UIbC2sivGYhTbTXKv4hsro12V47MGiQuicmqr/XLly8OFCkeOBAdw0AAADQlBDcAABOib1PP+3CmhivdfZaT69ZfZtWXqvIVoka8/zzrnbN4fo1tiT4xRcH9oEGLje3xN8DAACoO4IbAEC9Kdu9WyXr1unQ55+rY26u4r1zFtYUem2712xtqUNeq6hZZKSizj7bPwLCjy0DHhQZ2dLfAwAAqB2CGwBASFlYU+q1ws8/V3ZSklJvuUWbxo1T+rJl2undbmFNptesjk0zr1XWdfJkfw8If6NH24RAAACA2iO4AQCEVNE//6n0pCRtHjdOW556Snv27tW+Hj10aOxYlVmB4RNo493e9z/+wz8CAAAAQHADAAipNnfdpa0vveTCmvyxY12R4QFeu+jzz922w1lnqWVkpH91IKyxFuNda7dHM00KAAAAOIzlwAEAIVVy4IDW/fzniho9Wr3uuss/e0TO0qXa+fTTbmvi/WuquhYIR8nJGZo4cbHbnz9/vCZMiHX7AAAAtUFwAwAIKQtkGDWDpuytt/Zp8uQv3D7BDQAAqCumSgEAQorQBk0dq0oBAIBQIrgBAACoJ2efzapSAACgbghuAAAAAAAAGiiCGwAAAAAAgAaK4AYAACCEDhwo8fcAAADqjuAGAAAghJYuzfX3AAAA6o7gBgAAoB506MCKUgAAoO4IbgAAAOrBmDGsKAUAAOqO4AYAAAAAAKCBIrgBAAAAAABooAhuAAAAQigvj1WlAABA6BDcAAAAhNAXX+T4ewAAAHVHcAMAAFAPOnRo4e8BAADUHsENAABAPWBVKQAAEAoENwAAAAAAAA0UwQ0AAECIUJgYAACEGsENAABAiFCYGAAAhBrBDQAAQD2gODEAAAgFghsAAIB6cPbZMf4eAABA7RHcAAAAAAAANFAENwAAAAAAAA0UwQ0AAECI5OeX+nsAAAChQXADAAAQIl98ke3vAQAAhAbBDQAAQD1o355VpQAAQN0R3AAAANSDsWNZVQoAANQdwQ0AAAAAAEADRXADAAAQIhQnBgAAoUZwAwAAECJLluT4ewAAAKFBcAMAABBiFCYGAAChQnADAAAQYhQmBgAAoUJwAwAAAAAA0EAR3AAAAAAAADRQBDcAAACenBwpL88/qCVWlQIAAKFGcAMAAJq81FTp5Zel5GT/RC0tWZLt7wEAAIQGwQ0AAGjSMjOlqVOlTz+VDhzwT9ZRu3asKgUAAEKD4AYAADRZ2dnS889LZWW2hLd/MgTOOSfa3wMAAKgbghsAANBkzZ8vRUdLl14qDRzonwQAAGhACG4AAECTdc010u23SzfdJLVgdhMAAGiACG4AAECjZ1Oi9uwJtKws/2SIHTzIilIAACD0CG4AAECjN3eu9MtfBtqcOf7JEPv88yMrSlGcGAAAhArBDQAAaPS6dZMSEgKte3f/ZD0aOzbG3wMAAKgbghsAANDoXXml9OCDgTZ5sn8SAAAgDBDcAAAA1MHBg+XKyChz2yA7rtgAAABqq1m5x98HAABosl54QerYUbriCv/ESVhQs3NniT7/vNg1KV+PPpribjvnnLO8FuX2pTI98kisvw8AAFAzBDcAAAC1kJx8SBMnbvWPgvL8bQevBffzVV4+wd8HAACoGaZKAQAA1Eq+17ZUavv9dmS/XbtD3hYAAKB2CG4AAABqoW3bFoqLa+NabGyEOw6ycwkJ7V279tpu/lkAAICaY6oUAABALX32WbbbLlmSrX/+M03vvmujbKTFi8/XuHEsCQ4AAOqO4AYAACAEkpI2KDFxo9svL69mhWMAAICTYKoUAABACBQUlPp7AAAAoUNwAwAAEAKffZbj7wEAAIQOwQ0AAEAIVSxSDAAAUFcENwAAACFEUWIAABBKBDcAAAAAAAANFMENAABACHTqFKGePdu4LQAAQKiwHDgAAEAIfPZZtr/HdCkAABA6BDcAAAAAAAANFFOlAAAAAAAAGiiCGwAAAAAAgAaK4AYAAAAAAKCBIrgBAAAAAABooAhuAAAAAAAAGiiCGwAAAAAAgAaK4AYAAAAAAKCBIrgBAAAAAABooAhuAAAAAAAAGiiCGwAAAAAAgAaK4AYAAAAAAKCBIrgBAAAAAABooAhuAAAAAAAAGiTp/wNXi8mLl+h2FAAAAABJRU5ErkJggg==;" vertex="1" parent="1">
                    <mxGeometry x="-40" y="60" width="1134" height="714" as="geometry"/>
                </mxCell>
            </root>
        </mxGraphModel>
    </diagram>
</mxfile>
